<?xml version="1.0" encoding="UTF-8" standalone="no"?>
<!-- Generator: Gravit.io -->

<svg
   style="isolation:isolate"
   viewBox="0 0 305.999 307.324"
   width="305.999pt"
   height="307.324pt"
   version="1.1"
   id="svg232"
   sodipodi:docname="pattern.svg"
   inkscape:version="1.1.2 (0a00cf5339, 2022-02-04)"
   xmlns:inkscape="http://www.inkscape.org/namespaces/inkscape"
   xmlns:sodipodi="http://sodipodi.sourceforge.net/DTD/sodipodi-0.dtd"
   xmlns="http://www.w3.org/2000/svg"
   xmlns:svg="http://www.w3.org/2000/svg">
  <defs
     id="defs236">
    <rect
       x="0.66533335"
       y="212.18134"
       width="187.33332"
       height="46.303996"
       id="rect9778" />
  </defs>
  <sodipodi:namedview
     id="namedview234"
     pagecolor="#ffffff"
     bordercolor="#666666"
     borderopacity="1.0"
     inkscape:pageshadow="2"
     inkscape:pageopacity="0.0"
     inkscape:pagecheckerboard="0"
     inkscape:document-units="pt"
     showgrid="false"
     inkscape:zoom="2.0353112"
     inkscape:cx="191.12556"
     inkscape:cy="204.88267"
     inkscape:window-width="1920"
     inkscape:window-height="1043"
     inkscape:window-x="0"
     inkscape:window-y="0"
     inkscape:window-maximized="1"
     inkscape:current-layer="text12182" />
  <rect
     x="0.499"
     y="0"
     width="305"
     height="61"
     transform="matrix(1,0,0,1,0,0)"
     fill="rgb(235,235,235)"
     id="rect194" />
  <rect
     x="0.499"
     y="246.324"
     width="305"
     height="61"
     transform="matrix(1,0,0,1,0,0)"
     fill="rgb(255,200,119)"
     id="rect196" />
  <rect
     x="0.499"
     y="93"
     width="140.5"
     height="34.728"
     transform="matrix(1,0,0,1,0,0)"
     fill="rgb(215,0,79)"
     id="rect198" />
  <rect
     x="0.49900001"
     y="159.136"
     width="140.5"
     height="34.728001"
     fill="#d7004f"
     id="rect200" />
  <rect
     x="164.999"
     y="159.136"
     width="140.5"
     height="34.728"
     transform="matrix(1,0,0,1,0,0)"
     fill="rgb(215,0,79)"
     id="rect202" />
  <path
     d=" M 29.669 111.76 L 28.199 111.76 L 28.199 117.74 L 26.269 117.74 L 26.269 103.41 L 30.319 103.41 L 30.319 103.41 Q 31.679 103.41 32.669 103.685 L 32.669 103.685 L 32.669 103.685 Q 33.659 103.96 34.304 104.48 L 34.304 104.48 L 34.304 104.48 Q 34.949 105 35.259 105.735 L 35.259 105.735 L 35.259 105.735 Q 35.569 106.47 35.569 107.38 L 35.569 107.38 L 35.569 107.38 Q 35.569 108.14 35.329 108.8 L 35.329 108.8 L 35.329 108.8 Q 35.089 109.46 34.634 109.985 L 34.634 109.985 L 34.634 109.985 Q 34.179 110.51 33.524 110.88 L 33.524 110.88 L 33.524 110.88 Q 32.869 111.25 32.039 111.44 L 32.039 111.44 L 32.039 111.44 Q 32.399 111.65 32.679 112.05 L 32.679 112.05 L 36.859 117.74 L 35.139 117.74 L 35.139 117.74 Q 34.609 117.74 34.359 117.33 L 34.359 117.33 L 30.639 112.21 L 30.639 112.21 Q 30.469 111.97 30.269 111.865 L 30.269 111.865 L 30.269 111.865 Q 30.069 111.76 29.669 111.76 L 29.669 111.76 L 29.669 111.76 Z  M 28.199 104.94 L 28.199 110.35 L 30.229 110.35 L 30.229 110.35 Q 31.079 110.35 31.724 110.145 L 31.724 110.145 L 31.724 110.145 Q 32.369 109.94 32.804 109.565 L 32.804 109.565 L 32.804 109.565 Q 33.239 109.19 33.459 108.67 L 33.459 108.67 L 33.459 108.67 Q 33.679 108.15 33.679 107.52 L 33.679 107.52 L 33.679 107.52 Q 33.679 106.24 32.834 105.59 L 32.834 105.59 L 32.834 105.59 Q 31.989 104.94 30.319 104.94 L 30.319 104.94 L 28.199 104.94 L 28.199 104.94 Z  M 42.679 107.45 L 42.679 107.45 L 42.679 107.45 Q 43.589 107.45 44.359 107.755 L 44.359 107.755 L 44.359 107.755 Q 45.129 108.06 45.689 108.635 L 45.689 108.635 L 45.689 108.635 Q 46.249 109.21 46.564 110.055 L 46.564 110.055 L 46.564 110.055 Q 46.879 110.9 46.879 111.98 L 46.879 111.98 L 46.879 111.98 Q 46.879 112.4 46.789 112.54 L 46.789 112.54 L 46.789 112.54 Q 46.699 112.68 46.449 112.68 L 46.449 112.68 L 39.709 112.68 L 39.709 112.68 Q 39.729 113.64 39.969 114.35 L 39.969 114.35 L 39.969 114.35 Q 40.209 115.06 40.629 115.535 L 40.629 115.535 L 40.629 115.535 Q 41.049 116.01 41.629 116.245 L 41.629 116.245 L 41.629 116.245 Q 42.209 116.48 42.929 116.48 L 42.929 116.48 L 42.929 116.48 Q 43.599 116.48 44.084 116.325 L 44.084 116.325 L 44.084 116.325 Q 44.569 116.17 44.919 115.99 L 44.919 115.99 L 44.919 115.99 Q 45.269 115.81 45.504 115.655 L 45.504 115.655 L 45.504 115.655 Q 45.739 115.5 45.909 115.5 L 45.909 115.5 L 45.909 115.5 Q 46.129 115.5 46.249 115.67 L 46.249 115.67 L 46.749 116.32 L 46.749 116.32 Q 46.419 116.72 45.959 117.015 L 45.959 117.015 L 45.959 117.015 Q 45.499 117.31 44.974 117.5 L 44.974 117.5 L 44.974 117.5 Q 44.449 117.69 43.889 117.785 L 43.889 117.785 L 43.889 117.785 Q 43.329 117.88 42.779 117.88 L 42.779 117.88 L 42.779 117.88 Q 41.729 117.88 40.844 117.525 L 40.844 117.525 L 40.844 117.525 Q 39.959 117.17 39.314 116.485 L 39.314 116.485 L 39.314 116.485 Q 38.669 115.8 38.309 114.79 L 38.309 114.79 L 38.309 114.79 Q 37.949 113.78 37.949 112.47 L 37.949 112.47 L 37.949 112.47 Q 37.949 111.41 38.274 110.49 L 38.274 110.49 L 38.274 110.49 Q 38.599 109.57 39.209 108.895 L 39.209 108.895 L 39.209 108.895 Q 39.819 108.22 40.699 107.835 L 40.699 107.835 L 40.699 107.835 Q 41.579 107.45 42.679 107.45 Z  M 42.719 108.76 L 42.719 108.76 L 42.719 108.76 Q 41.429 108.76 40.689 109.505 L 40.689 109.505 L 40.689 109.505 Q 39.949 110.25 39.769 111.57 L 39.769 111.57 L 45.279 111.57 L 45.279 111.57 Q 45.279 110.95 45.109 110.435 L 45.109 110.435 L 45.109 110.435 Q 44.939 109.92 44.609 109.545 L 44.609 109.545 L 44.609 109.545 Q 44.279 109.17 43.804 108.965 L 43.804 108.965 L 43.804 108.965 Q 43.329 108.76 42.719 108.76 Z  M 55.349 108.63 L 54.949 109.28 L 54.949 109.28 Q 54.829 109.5 54.579 109.5 L 54.579 109.5 L 54.579 109.5 Q 54.429 109.5 54.239 109.39 L 54.239 109.39 L 54.239 109.39 Q 54.049 109.28 53.774 109.145 L 53.774 109.145 L 53.774 109.145 Q 53.499 109.01 53.119 108.895 L 53.119 108.895 L 53.119 108.895 Q 52.739 108.78 52.219 108.78 L 52.219 108.78 L 52.219 108.78 Q 51.769 108.78 51.409 108.895 L 51.409 108.895 L 51.409 108.895 Q 51.049 109.01 50.794 109.21 L 50.794 109.21 L 50.794 109.21 Q 50.539 109.41 50.404 109.675 L 50.404 109.675 L 50.404 109.675 Q 50.269 109.94 50.269 110.25 L 50.269 110.25 L 50.269 110.25 Q 50.269 110.64 50.494 110.9 L 50.494 110.9 L 50.494 110.9 Q 50.719 111.16 51.089 111.35 L 51.089 111.35 L 51.089 111.35 Q 51.459 111.54 51.929 111.685 L 51.929 111.685 L 51.929 111.685 Q 52.399 111.83 52.894 111.995 L 52.894 111.995 L 52.894 111.995 Q 53.389 112.16 53.859 112.36 L 53.859 112.36 L 53.859 112.36 Q 54.329 112.56 54.699 112.86 L 54.699 112.86 L 54.699 112.86 Q 55.069 113.16 55.294 113.595 L 55.294 113.595 L 55.294 113.595 Q 55.519 114.03 55.519 114.64 L 55.519 114.64 L 55.519 114.64 Q 55.519 115.34 55.269 115.935 L 55.269 115.935 L 55.269 115.935 Q 55.019 116.53 54.529 116.965 L 54.529 116.965 L 54.529 116.965 Q 54.039 117.4 53.329 117.65 L 53.329 117.65 L 53.329 117.65 Q 52.619 117.9 51.689 117.9 L 51.689 117.9 L 51.689 117.9 Q 50.629 117.9 49.769 117.555 L 49.769 117.555 L 49.769 117.555 Q 48.909 117.21 48.309 116.67 L 48.309 116.67 L 48.729 115.99 L 48.729 115.99 Q 48.809 115.86 48.919 115.79 L 48.919 115.79 L 48.919 115.79 Q 49.029 115.72 49.209 115.72 L 49.209 115.72 L 49.209 115.72 Q 49.389 115.72 49.589 115.86 L 49.589 115.86 L 49.589 115.86 Q 49.789 116 50.074 116.17 L 50.074 116.17 L 50.074 116.17 Q 50.359 116.34 50.764 116.48 L 50.764 116.48 L 50.764 116.48 Q 51.169 116.62 51.779 116.62 L 51.779 116.62 L 51.779 116.62 Q 52.299 116.62 52.689 116.485 L 52.689 116.485 L 52.689 116.485 Q 53.079 116.35 53.339 116.12 L 53.339 116.12 L 53.339 116.12 Q 53.599 115.89 53.724 115.59 L 53.724 115.59 L 53.724 115.59 Q 53.849 115.29 53.849 114.95 L 53.849 114.95 L 53.849 114.95 Q 53.849 114.53 53.624 114.255 L 53.624 114.255 L 53.624 114.255 Q 53.399 113.98 53.029 113.785 L 53.029 113.785 L 53.029 113.785 Q 52.659 113.59 52.184 113.445 L 52.184 113.445 L 52.184 113.445 Q 51.709 113.3 51.214 113.14 L 51.214 113.14 L 51.214 113.14 Q 50.719 112.98 50.244 112.775 L 50.244 112.775 L 50.244 112.775 Q 49.769 112.57 49.399 112.26 L 49.399 112.26 L 49.399 112.26 Q 49.029 111.95 48.804 111.495 L 48.804 111.495 L 48.804 111.495 Q 48.579 111.04 48.579 110.39 L 48.579 110.39 L 48.579 110.39 Q 48.579 109.81 48.819 109.275 L 48.819 109.275 L 48.819 109.275 Q 49.059 108.74 49.519 108.335 L 49.519 108.335 L 49.519 108.335 Q 49.979 107.93 50.649 107.69 L 50.649 107.69 L 50.649 107.69 Q 51.319 107.45 52.179 107.45 L 52.179 107.45 L 52.179 107.45 Q 53.179 107.45 53.974 107.765 L 53.974 107.765 L 53.974 107.765 Q 54.769 108.08 55.349 108.63 L 55.349 108.63 L 55.349 108.63 Z  M 61.929 107.45 L 61.929 107.45 L 61.929 107.45 Q 63.039 107.45 63.934 107.82 L 63.934 107.82 L 63.934 107.82 Q 64.829 108.19 65.454 108.87 L 65.454 108.87 L 65.454 108.87 Q 66.079 109.55 66.414 110.515 L 66.414 110.515 L 66.414 110.515 Q 66.749 111.48 66.749 112.67 L 66.749 112.67 L 66.749 112.67 Q 66.749 113.87 66.414 114.83 L 66.414 114.83 L 66.414 114.83 Q 66.079 115.79 65.454 116.47 L 65.454 116.47 L 65.454 116.47 Q 64.829 117.15 63.934 117.515 L 63.934 117.515 L 63.934 117.515 Q 63.039 117.88 61.929 117.88 L 61.929 117.88 L 61.929 117.88 Q 60.819 117.88 59.924 117.515 L 59.924 117.515 L 59.924 117.515 Q 59.029 117.15 58.399 116.47 L 58.399 116.47 L 58.399 116.47 Q 57.769 115.79 57.429 114.83 L 57.429 114.83 L 57.429 114.83 Q 57.089 113.87 57.089 112.67 L 57.089 112.67 L 57.089 112.67 Q 57.089 111.48 57.429 110.515 L 57.429 110.515 L 57.429 110.515 Q 57.769 109.55 58.399 108.87 L 58.399 108.87 L 58.399 108.87 Q 59.029 108.19 59.924 107.82 L 59.924 107.82 L 59.924 107.82 Q 60.819 107.45 61.929 107.45 Z  M 61.929 116.49 L 61.929 116.49 L 61.929 116.49 Q 63.429 116.49 64.169 115.485 L 64.169 115.485 L 64.169 115.485 Q 64.909 114.48 64.909 112.68 L 64.909 112.68 L 64.909 112.68 Q 64.909 110.87 64.169 109.86 L 64.169 109.86 L 64.169 109.86 Q 63.429 108.85 61.929 108.85 L 61.929 108.85 L 61.929 108.85 Q 61.169 108.85 60.609 109.11 L 60.609 109.11 L 60.609 109.11 Q 60.049 109.37 59.674 109.86 L 59.674 109.86 L 59.674 109.86 Q 59.299 110.35 59.114 111.065 L 59.114 111.065 L 59.114 111.065 Q 58.929 111.78 58.929 112.68 L 58.929 112.68 L 58.929 112.68 Q 58.929 113.58 59.114 114.29 L 59.114 114.29 L 59.114 114.29 Q 59.299 115 59.674 115.485 L 59.674 115.485 L 59.674 115.485 Q 60.049 115.97 60.609 116.23 L 60.609 116.23 L 60.609 116.23 Q 61.169 116.49 61.929 116.49 Z  M 68.709 107.61 L 70.489 107.61 L 70.489 114.07 L 70.489 114.07 Q 70.489 115.22 71.019 115.85 L 71.019 115.85 L 71.019 115.85 Q 71.549 116.48 72.619 116.48 L 72.619 116.48 L 72.619 116.48 Q 73.399 116.48 74.089 116.11 L 74.089 116.11 L 74.089 116.11 Q 74.779 115.74 75.359 115.08 L 75.359 115.08 L 75.359 107.61 L 77.139 107.61 L 77.139 117.74 L 76.079 117.74 L 76.079 117.74 Q 75.699 117.74 75.599 117.37 L 75.599 117.37 L 75.459 116.28 L 75.459 116.28 Q 74.799 117.01 73.979 117.455 L 73.979 117.455 L 73.979 117.455 Q 73.159 117.9 72.099 117.9 L 72.099 117.9 L 72.099 117.9 Q 71.269 117.9 70.634 117.625 L 70.634 117.625 L 70.634 117.625 Q 69.999 117.35 69.569 116.85 L 69.569 116.85 L 69.569 116.85 Q 69.139 116.35 68.924 115.64 L 68.924 115.64 L 68.924 115.64 Q 68.709 114.93 68.709 114.07 L 68.709 114.07 L 68.709 107.61 L 68.709 107.61 Z  M 81.849 117.74 L 80.069 117.74 L 80.069 107.61 L 81.089 107.61 L 81.089 107.61 Q 81.379 107.61 81.489 107.72 L 81.489 107.72 L 81.489 107.72 Q 81.599 107.83 81.639 108.1 L 81.639 108.1 L 81.759 109.68 L 81.759 109.68 Q 82.279 108.62 83.044 108.025 L 83.044 108.025 L 83.044 108.025 Q 83.809 107.43 84.839 107.43 L 84.839 107.43 L 84.839 107.43 Q 85.259 107.43 85.599 107.525 L 85.599 107.525 L 85.599 107.525 Q 85.939 107.62 86.229 107.79 L 86.229 107.79 L 85.999 109.12 L 85.999 109.12 Q 85.929 109.37 85.689 109.37 L 85.689 109.37 L 85.689 109.37 Q 85.549 109.37 85.259 109.275 L 85.259 109.275 L 85.259 109.275 Q 84.969 109.18 84.449 109.18 L 84.449 109.18 L 84.449 109.18 Q 83.519 109.18 82.894 109.72 L 82.894 109.72 L 82.894 109.72 Q 82.269 110.26 81.849 111.29 L 81.849 111.29 L 81.849 117.74 L 81.849 117.74 Z  M 95.509 108.77 L 95.039 109.41 L 95.039 109.41 Q 94.959 109.52 94.879 109.58 L 94.879 109.58 L 94.879 109.58 Q 94.799 109.64 94.649 109.64 L 94.649 109.64 L 94.649 109.64 Q 94.499 109.64 94.324 109.515 L 94.324 109.515 L 94.324 109.515 Q 94.149 109.39 93.879 109.24 L 93.879 109.24 L 93.879 109.24 Q 93.609 109.09 93.224 108.965 L 93.224 108.965 L 93.224 108.965 Q 92.839 108.84 92.279 108.84 L 92.279 108.84 L 92.279 108.84 Q 91.539 108.84 90.969 109.105 L 90.969 109.105 L 90.969 109.105 Q 90.399 109.37 90.014 109.87 L 90.014 109.87 L 90.014 109.87 Q 89.629 110.37 89.434 111.08 L 89.434 111.08 L 89.434 111.08 Q 89.239 111.79 89.239 112.67 L 89.239 112.67 L 89.239 112.67 Q 89.239 113.59 89.449 114.305 L 89.449 114.305 L 89.449 114.305 Q 89.659 115.02 90.039 115.505 L 90.039 115.505 L 90.039 115.505 Q 90.419 115.99 90.964 116.245 L 90.964 116.245 L 90.964 116.245 Q 91.509 116.5 92.189 116.5 L 92.189 116.5 L 92.189 116.5 Q 92.839 116.5 93.259 116.345 L 93.259 116.345 L 93.259 116.345 Q 93.679 116.19 93.959 116 L 93.959 116 L 93.959 116 Q 94.239 115.81 94.419 115.655 L 94.419 115.655 L 94.419 115.655 Q 94.599 115.5 94.779 115.5 L 94.779 115.5 L 94.779 115.5 Q 95.009 115.5 95.119 115.67 L 95.119 115.67 L 95.619 116.32 L 95.619 116.32 Q 94.959 117.13 93.969 117.505 L 93.969 117.505 L 93.969 117.505 Q 92.979 117.88 91.879 117.88 L 91.879 117.88 L 91.879 117.88 Q 90.929 117.88 90.114 117.53 L 90.114 117.53 L 90.114 117.53 Q 89.299 117.18 88.699 116.515 L 88.699 116.515 L 88.699 116.515 Q 88.099 115.85 87.754 114.88 L 87.754 114.88 L 87.754 114.88 Q 87.409 113.91 87.409 112.67 L 87.409 112.67 L 87.409 112.67 Q 87.409 111.54 87.724 110.58 L 87.724 110.58 L 87.724 110.58 Q 88.039 109.62 88.644 108.925 L 88.644 108.925 L 88.644 108.925 Q 89.249 108.23 90.139 107.84 L 90.139 107.84 L 90.139 107.84 Q 91.029 107.45 92.179 107.45 L 92.179 107.45 L 92.179 107.45 Q 93.239 107.45 94.059 107.795 L 94.059 107.795 L 94.059 107.795 Q 94.879 108.14 95.509 108.77 L 95.509 108.77 L 95.509 108.77 Z  M 101.479 107.45 L 101.479 107.45 L 101.479 107.45 Q 102.389 107.45 103.159 107.755 L 103.159 107.755 L 103.159 107.755 Q 103.929 108.06 104.489 108.635 L 104.489 108.635 L 104.489 108.635 Q 105.049 109.21 105.364 110.055 L 105.364 110.055 L 105.364 110.055 Q 105.679 110.9 105.679 111.98 L 105.679 111.98 L 105.679 111.98 Q 105.679 112.4 105.589 112.54 L 105.589 112.54 L 105.589 112.54 Q 105.499 112.68 105.249 112.68 L 105.249 112.68 L 98.509 112.68 L 98.509 112.68 Q 98.529 113.64 98.769 114.35 L 98.769 114.35 L 98.769 114.35 Q 99.009 115.06 99.429 115.535 L 99.429 115.535 L 99.429 115.535 Q 99.849 116.01 100.429 116.245 L 100.429 116.245 L 100.429 116.245 Q 101.009 116.48 101.729 116.48 L 101.729 116.48 L 101.729 116.48 Q 102.399 116.48 102.884 116.325 L 102.884 116.325 L 102.884 116.325 Q 103.369 116.17 103.719 115.99 L 103.719 115.99 L 103.719 115.99 Q 104.069 115.81 104.304 115.655 L 104.304 115.655 L 104.304 115.655 Q 104.539 115.5 104.709 115.5 L 104.709 115.5 L 104.709 115.5 Q 104.929 115.5 105.049 115.67 L 105.049 115.67 L 105.549 116.32 L 105.549 116.32 Q 105.219 116.72 104.759 117.015 L 104.759 117.015 L 104.759 117.015 Q 104.299 117.31 103.774 117.5 L 103.774 117.5 L 103.774 117.5 Q 103.249 117.69 102.689 117.785 L 102.689 117.785 L 102.689 117.785 Q 102.129 117.88 101.579 117.88 L 101.579 117.88 L 101.579 117.88 Q 100.529 117.88 99.644 117.525 L 99.644 117.525 L 99.644 117.525 Q 98.759 117.17 98.114 116.485 L 98.114 116.485 L 98.114 116.485 Q 97.469 115.8 97.109 114.79 L 97.109 114.79 L 97.109 114.79 Q 96.749 113.78 96.749 112.47 L 96.749 112.47 L 96.749 112.47 Q 96.749 111.41 97.074 110.49 L 97.074 110.49 L 97.074 110.49 Q 97.399 109.57 98.009 108.895 L 98.009 108.895 L 98.009 108.895 Q 98.619 108.22 99.499 107.835 L 99.499 107.835 L 99.499 107.835 Q 100.379 107.45 101.479 107.45 Z  M 101.519 108.76 L 101.519 108.76 L 101.519 108.76 Q 100.229 108.76 99.489 109.505 L 99.489 109.505 L 99.489 109.505 Q 98.749 110.25 98.569 111.57 L 98.569 111.57 L 104.079 111.57 L 104.079 111.57 Q 104.079 110.95 103.909 110.435 L 103.909 110.435 L 103.909 110.435 Q 103.739 109.92 103.409 109.545 L 103.409 109.545 L 103.409 109.545 Q 103.079 109.17 102.604 108.965 L 102.604 108.965 L 102.604 108.965 Q 102.129 108.76 101.519 108.76 Z  M 114.149 108.63 L 113.749 109.28 L 113.749 109.28 Q 113.629 109.5 113.379 109.5 L 113.379 109.5 L 113.379 109.5 Q 113.229 109.5 113.039 109.39 L 113.039 109.39 L 113.039 109.39 Q 112.849 109.28 112.574 109.145 L 112.574 109.145 L 112.574 109.145 Q 112.299 109.01 111.919 108.895 L 111.919 108.895 L 111.919 108.895 Q 111.539 108.78 111.019 108.78 L 111.019 108.78 L 111.019 108.78 Q 110.569 108.78 110.209 108.895 L 110.209 108.895 L 110.209 108.895 Q 109.849 109.01 109.594 109.21 L 109.594 109.21 L 109.594 109.21 Q 109.339 109.41 109.204 109.675 L 109.204 109.675 L 109.204 109.675 Q 109.069 109.94 109.069 110.25 L 109.069 110.25 L 109.069 110.25 Q 109.069 110.64 109.294 110.9 L 109.294 110.9 L 109.294 110.9 Q 109.519 111.16 109.889 111.35 L 109.889 111.35 L 109.889 111.35 Q 110.259 111.54 110.729 111.685 L 110.729 111.685 L 110.729 111.685 Q 111.199 111.83 111.694 111.995 L 111.694 111.995 L 111.694 111.995 Q 112.189 112.16 112.659 112.36 L 112.659 112.36 L 112.659 112.36 Q 113.129 112.56 113.499 112.86 L 113.499 112.86 L 113.499 112.86 Q 113.869 113.16 114.094 113.595 L 114.094 113.595 L 114.094 113.595 Q 114.319 114.03 114.319 114.64 L 114.319 114.64 L 114.319 114.64 Q 114.319 115.34 114.069 115.935 L 114.069 115.935 L 114.069 115.935 Q 113.819 116.53 113.329 116.965 L 113.329 116.965 L 113.329 116.965 Q 112.839 117.4 112.129 117.65 L 112.129 117.65 L 112.129 117.65 Q 111.419 117.9 110.489 117.9 L 110.489 117.9 L 110.489 117.9 Q 109.429 117.9 108.569 117.555 L 108.569 117.555 L 108.569 117.555 Q 107.709 117.21 107.109 116.67 L 107.109 116.67 L 107.529 115.99 L 107.529 115.99 Q 107.609 115.86 107.719 115.79 L 107.719 115.79 L 107.719 115.79 Q 107.829 115.72 108.009 115.72 L 108.009 115.72 L 108.009 115.72 Q 108.189 115.72 108.389 115.86 L 108.389 115.86 L 108.389 115.86 Q 108.589 116 108.874 116.17 L 108.874 116.17 L 108.874 116.17 Q 109.159 116.34 109.564 116.48 L 109.564 116.48 L 109.564 116.48 Q 109.969 116.62 110.579 116.62 L 110.579 116.62 L 110.579 116.62 Q 111.099 116.62 111.489 116.485 L 111.489 116.485 L 111.489 116.485 Q 111.879 116.35 112.139 116.12 L 112.139 116.12 L 112.139 116.12 Q 112.399 115.89 112.524 115.59 L 112.524 115.59 L 112.524 115.59 Q 112.649 115.29 112.649 114.95 L 112.649 114.95 L 112.649 114.95 Q 112.649 114.53 112.424 114.255 L 112.424 114.255 L 112.424 114.255 Q 112.199 113.98 111.829 113.785 L 111.829 113.785 L 111.829 113.785 Q 111.459 113.59 110.984 113.445 L 110.984 113.445 L 110.984 113.445 Q 110.509 113.3 110.014 113.14 L 110.014 113.14 L 110.014 113.14 Q 109.519 112.98 109.044 112.775 L 109.044 112.775 L 109.044 112.775 Q 108.569 112.57 108.199 112.26 L 108.199 112.26 L 108.199 112.26 Q 107.829 111.95 107.604 111.495 L 107.604 111.495 L 107.604 111.495 Q 107.379 111.04 107.379 110.39 L 107.379 110.39 L 107.379 110.39 Q 107.379 109.81 107.619 109.275 L 107.619 109.275 L 107.619 109.275 Q 107.859 108.74 108.319 108.335 L 108.319 108.335 L 108.319 108.335 Q 108.779 107.93 109.449 107.69 L 109.449 107.69 L 109.449 107.69 Q 110.119 107.45 110.979 107.45 L 110.979 107.45 L 110.979 107.45 Q 111.979 107.45 112.774 107.765 L 112.774 107.765 L 112.774 107.765 Q 113.569 108.08 114.149 108.63 L 114.149 108.63 L 114.149 108.63 Z "
     fill="rgb(255,255,255)"
     id="path204" />
  <path
     d=" M 148.939 36.7 L 148.939 36.7 L 148.939 36.7 Q 149.829 36.7 150.529 36.4 L 150.529 36.4 L 150.529 36.4 Q 151.229 36.1 151.714 35.56 L 151.714 35.56 L 151.714 35.56 Q 152.199 35.02 152.454 34.27 L 152.454 34.27 L 152.454 34.27 Q 152.709 33.52 152.709 32.62 L 152.709 32.62 L 152.709 23.91 L 154.639 23.91 L 154.639 32.62 L 154.639 32.62 Q 154.639 33.86 154.244 34.92 L 154.244 34.92 L 154.244 34.92 Q 153.849 35.98 153.114 36.755 L 153.114 36.755 L 153.114 36.755 Q 152.379 37.53 151.319 37.97 L 151.319 37.97 L 151.319 37.97 Q 150.259 38.41 148.939 38.41 L 148.939 38.41 L 148.939 38.41 Q 147.619 38.41 146.559 37.97 L 146.559 37.97 L 146.559 37.97 Q 145.499 37.53 144.759 36.755 L 144.759 36.755 L 144.759 36.755 Q 144.019 35.98 143.624 34.92 L 143.624 34.92 L 143.624 34.92 Q 143.229 33.86 143.229 32.62 L 143.229 32.62 L 143.229 23.91 L 145.159 23.91 L 145.159 32.61 L 145.159 32.61 Q 145.159 33.51 145.414 34.26 L 145.414 34.26 L 145.414 34.26 Q 145.669 35.01 146.154 35.55 L 146.154 35.55 L 146.154 35.55 Q 146.639 36.09 147.344 36.395 L 147.344 36.395 L 147.344 36.395 Q 148.049 36.7 148.939 36.7 Z  M 160.269 23.91 L 160.269 38.24 L 158.329 38.24 L 158.329 23.91 L 160.269 23.91 L 160.269 23.91 Z "
     fill="rgb(5,10,20)"
     id="path210" />
  <path
     d=" M 143.819 270.234 L 149.549 284.564 L 148.049 284.564 L 148.049 284.564 Q 147.789 284.564 147.629 284.434 L 147.629 284.434 L 147.629 284.434 Q 147.469 284.304 147.389 284.104 L 147.389 284.104 L 146.049 280.644 L 139.619 280.644 L 138.279 284.104 L 138.279 284.104 Q 138.209 284.284 138.039 284.424 L 138.039 284.424 L 138.039 284.424 Q 137.869 284.564 137.619 284.564 L 137.619 284.564 L 136.119 284.564 L 141.849 270.234 L 143.819 270.234 L 143.819 270.234 Z  M 142.409 273.424 L 140.159 279.244 L 145.509 279.244 L 143.259 273.414 L 143.259 273.414 Q 143.039 272.874 142.829 272.064 L 142.829 272.064 L 142.829 272.064 Q 142.719 272.474 142.614 272.819 L 142.614 272.819 L 142.614 272.819 Q 142.509 273.164 142.409 273.424 L 142.409 273.424 L 142.409 273.424 Z  M 155.789 279.204 L 153.489 279.204 L 153.489 284.564 L 151.559 284.564 L 151.559 270.234 L 155.789 270.234 L 155.789 270.234 Q 157.149 270.234 158.154 270.549 L 158.154 270.549 L 158.154 270.549 Q 159.159 270.864 159.819 271.444 L 159.819 271.444 L 159.819 271.444 Q 160.479 272.024 160.804 272.844 L 160.804 272.844 L 160.804 272.844 Q 161.129 273.664 161.129 274.674 L 161.129 274.674 L 161.129 274.674 Q 161.129 275.674 160.779 276.504 L 160.779 276.504 L 160.779 276.504 Q 160.429 277.334 159.754 277.934 L 159.754 277.934 L 159.754 277.934 Q 159.079 278.534 158.079 278.869 L 158.079 278.869 L 158.079 278.869 Q 157.079 279.204 155.789 279.204 L 155.789 279.204 L 155.789 279.204 Z  M 153.489 271.764 L 153.489 277.664 L 155.789 277.664 L 155.789 277.664 Q 156.619 277.664 157.254 277.444 L 157.254 277.444 L 157.254 277.444 Q 157.889 277.224 158.319 276.829 L 158.319 276.829 L 158.319 276.829 Q 158.749 276.434 158.969 275.884 L 158.969 275.884 L 158.969 275.884 Q 159.189 275.334 159.189 274.674 L 159.189 274.674 L 159.189 274.674 Q 159.189 273.304 158.344 272.534 L 158.344 272.534 L 158.344 272.534 Q 157.499 271.764 155.789 271.764 L 155.789 271.764 L 153.489 271.764 L 153.489 271.764 Z  M 165.879 270.234 L 165.879 284.564 L 163.939 284.564 L 163.939 270.234 L 165.879 270.234 L 165.879 270.234 Z "
     fill="rgb(5,10,20)"
     id="path212" />
  <polygon
     points="70.749,149.818,63.376,137.046,78.123,137.046"
     fill="rgb(52,73,94)"
     id="polygon214" />
  <polygon
     points="68.966,83.728,61.592,70.956,76.339,70.956"
     fill="rgb(52,73,94)"
     id="polygon216" />
  <polygon
     points="237.126,149.818,229.752,137.046,244.499,137.046"
     fill="rgb(52,73,94)"
     id="polygon218" />
  <polygon
     points="236.373,240.84,228.999,228.068,243.747,228.068"
     fill="rgb(52,73,94)"
     id="polygon220" />
  <polygon
     points="69.626,240.84,62.252,228.068,76.999,228.068"
     fill="rgb(52,73,94)"
     id="polygon222" />
  <line
     x1="0.499"
     y1="220.094"
     x2="305.499"
     y2="220.094"
     vector-effect="non-scaling-stroke"
     stroke-width="1"
     stroke-dasharray="2,5"
     stroke="rgb(0,0,0)"
     stroke-linejoin="miter"
     stroke-linecap="square"
     stroke-miterlimit="3"
     id="line224" />
  <rect
     x="235.249"
     y="69.478"
     width="3.687"
     height="71.044"
     transform="matrix(1,0,0,1,0,0)"
     fill="rgb(52,73,94)"
     id="rect226" />
  <rect
     x="234.497"
     y="199"
     width="3.687"
     height="32.544"
     transform="matrix(1,0,0,1,0,0)"
     fill="rgb(52,73,94)"
     id="rect228" />
  <rect
     x="67.749"
     y="199"
     width="3.687"
     height="32.544"
     transform="matrix(1,0,0,1,0,0)"
     fill="rgb(52,73,94)"
     id="rect230" />
  <text
     xml:space="preserve"
     transform="scale(0.75)"
     id="text9776"
     style="line-height:1.25;font-family:Lato;font-weight:normal;font-size:43.25519943px;-inkscape-font-specification:Lato;font-variant-ligatures:none;white-space:pre;shape-inside:url(#rect9778);font-style:normal;font-stretch:normal;font-variant:normal" />
  <g
     aria-label="Data Provider"
     id="text12182"
     style="font-weight:bold;font-size:18px;line-height:1.25;font-family:'Open Sans';-inkscape-font-specification:'Open Sans, Bold';font-variant-ligatures:none;fill:#ffffff;stroke-width:0.75">
    <path
       d="m 24.327108,176.698 q 0,3.258 -1.782,4.914 -1.764,1.638 -4.932,1.638 h -3.582 v -12.852 h 3.96 q 1.944,0 3.366,0.72 1.422,0.72 2.196,2.124 0.774,1.386 0.774,3.456 z m -1.71,0.054 q 0,-2.574 -1.278,-3.762 -1.26,-1.206 -3.582,-1.206 h -2.106 v 10.08 h 1.746 q 5.22,0 5.22,-5.112 z"
       style="font-weight:normal;font-family:'Noto Sans';-inkscape-font-specification:'Noto Sans';baseline-shift:baseline"
       id="path27264" />
    <path
       d="m 30.609099,173.44 q 1.764,0 2.61,0.774 0.846,0.774 0.846,2.466 v 6.57 h -1.152 l -0.306,-1.368 h -0.072 q -0.63,0.792 -1.332,1.17 -0.684,0.378 -1.908,0.378 -1.314,0 -2.178,-0.684 -0.864,-0.702 -0.864,-2.178 0,-1.44 1.134,-2.214 1.134,-0.792 3.492,-0.864 l 1.638,-0.054 v -0.576 q 0,-1.206 -0.522,-1.674 -0.522,-0.468 -1.476,-0.468 -0.756,0 -1.44,0.234 -0.684,0.216 -1.278,0.504 l -0.486,-1.188 q 0.63,-0.342 1.494,-0.576 0.864,-0.252 1.8,-0.252 z m 0.468,5.148 q -1.8,0.072 -2.502,0.576 -0.684,0.504 -0.684,1.422 0,0.81 0.486,1.188 0.504,0.378 1.278,0.378 1.224,0 2.034,-0.666 0.81,-0.684 0.81,-2.088 v -0.864 z"
       style="font-weight:normal;font-family:'Noto Sans';-inkscape-font-specification:'Noto Sans';baseline-shift:baseline"
       id="path27266" />
    <path
       d="m 40.27508,182.134 q 0.36,0 0.738,-0.054 0.378,-0.072 0.612,-0.144 v 1.206 q -0.252,0.126 -0.72,0.198 -0.468,0.09 -0.9,0.09 -0.756,0 -1.404,-0.252 -0.63,-0.27 -1.026,-0.918 -0.396,-0.648 -0.396,-1.818 v -5.616 h -1.368 v -0.756 l 1.386,-0.63 0.63,-2.052 h 0.936 v 2.214 h 2.79 v 1.224 h -2.79 v 5.58 q 0,0.882 0.414,1.314 0.432,0.414 1.098,0.414 z"
       style="font-weight:normal;font-family:'Noto Sans';-inkscape-font-specification:'Noto Sans';baseline-shift:baseline"
       id="path27268" />
    <path
       d="m 47.205047,173.44 q 1.764,0 2.61,0.774 0.846,0.774 0.846,2.466 v 6.57 h -1.152 l -0.306,-1.368 h -0.072 q -0.63,0.792 -1.332,1.17 -0.684,0.378 -1.908,0.378 -1.314,0 -2.178,-0.684 -0.864,-0.702 -0.864,-2.178 0,-1.44 1.134,-2.214 1.134,-0.792 3.492,-0.864 l 1.638,-0.054 v -0.576 q 0,-1.206 -0.522,-1.674 -0.522,-0.468 -1.476,-0.468 -0.756,0 -1.44,0.234 -0.684,0.216 -1.278,0.504 l -0.486,-1.188 q 0.63,-0.342 1.494,-0.576 0.864,-0.252 1.8,-0.252 z m 0.468,5.148 q -1.8,0.072 -2.502,0.576 -0.684,0.504 -0.684,1.422 0,0.81 0.486,1.188 0.504,0.378 1.278,0.378 1.224,0 2.034,-0.666 0.81,-0.684 0.81,-2.088 v -0.864 z"
       style="font-weight:normal;font-family:'Noto Sans';-inkscape-font-specification:'Noto Sans';baseline-shift:baseline"
       id="path27270" />
    <path
       d="m 61.946997,170.398 q 2.52,0 3.672,0.99 1.152,0.99 1.152,2.79 0,1.062 -0.486,1.998 -0.468,0.918 -1.602,1.494 -1.116,0.576 -3.042,0.576 h -1.476 v 5.004 h -1.62 v -12.852 z m -0.144,1.386 h -1.638 v 5.076 h 1.296 q 1.836,0 2.736,-0.594 0.9,-0.594 0.9,-2.016 0,-1.242 -0.792,-1.854 -0.792,-0.612 -2.502,-0.612 z"
       style="font-weight:normal;font-family:'Noto Sans';-inkscape-font-specification:'Noto Sans';baseline-shift:baseline"
       id="path27272" />
    <path
       d="m 73.718989,173.422 q 0.27,0 0.576,0.036 0.324,0.018 0.558,0.072 l -0.198,1.458 q -0.234,-0.054 -0.522,-0.09 -0.27,-0.036 -0.522,-0.036 -0.738,0 -1.386,0.414 -0.648,0.396 -1.044,1.134 -0.378,0.72 -0.378,1.692 v 5.148 h -1.584 v -9.648 h 1.296 l 0.18,1.764 h 0.072 q 0.468,-0.792 1.206,-1.368 0.738,-0.576 1.746,-0.576 z"
       style="font-weight:normal;font-family:'Noto Sans';-inkscape-font-specification:'Noto Sans';baseline-shift:baseline"
       id="path27274" />
    <path
       d="m 84.680948,178.408 q 0,2.394 -1.224,3.708 -1.206,1.314 -3.276,1.314 -1.278,0 -2.286,-0.576 -0.99,-0.594 -1.566,-1.71 -0.576,-1.134 -0.576,-2.736 0,-2.394 1.206,-3.69 1.206,-1.296 3.276,-1.296 1.314,0 2.304,0.594 1.008,0.576 1.566,1.692 0.576,1.098 0.576,2.7 z m -7.29,0 q 0,1.71 0.666,2.718 0.684,0.99 2.16,0.99 1.458,0 2.142,-0.99 0.684,-1.008 0.684,-2.718 0,-1.71 -0.684,-2.682 -0.684,-0.972 -2.16,-0.972 -1.476,0 -2.142,0.972 -0.666,0.972 -0.666,2.682 z"
       style="font-weight:normal;font-family:'Noto Sans';-inkscape-font-specification:'Noto Sans';baseline-shift:baseline"
       id="path27276" />
    <path
       d="m 88.946935,183.25 -3.654,-9.648 h 1.692 l 2.052,5.688 q 0.144,0.396 0.306,0.882 0.162,0.486 0.288,0.936 0.126,0.432 0.18,0.738 h 0.072 q 0.072,-0.306 0.198,-0.756 0.144,-0.45 0.306,-0.936 0.18,-0.486 0.306,-0.864 l 2.052,-5.688 h 1.692 l -3.672,9.648 z"
       style="font-weight:normal;font-family:'Noto Sans';-inkscape-font-specification:'Noto Sans';baseline-shift:baseline"
       id="path27278" />
    <path
       d="m 96.776917,169.984 q 0.36,0 0.63,0.252 0.288,0.234 0.288,0.756 0,0.504 -0.288,0.756 -0.27,0.252 -0.63,0.252 -0.396,0 -0.666,-0.252 -0.27,-0.252 -0.27,-0.756 0,-0.522 0.27,-0.756 0.27,-0.252 0.666,-0.252 z m 0.774,3.618 v 9.648 h -1.584 v -9.648 z"
       style="font-weight:normal;font-family:'Noto Sans';-inkscape-font-specification:'Noto Sans';baseline-shift:baseline"
       id="path27280" />
    <path
       d="m 104.03091,183.43 q -1.8,0 -2.88,-1.242 -1.08,-1.26 -1.08,-3.744 0,-2.484 1.08,-3.744 1.098,-1.278 2.898,-1.278 1.116,0 1.818,0.414 0.72,0.414 1.17,1.008 h 0.108 q -0.018,-0.234 -0.072,-0.684 -0.036,-0.468 -0.036,-0.738 v -3.852 h 1.584 v 13.68 h -1.278 l -0.234,-1.296 h -0.072 q -0.432,0.612 -1.152,1.044 -0.72,0.432 -1.854,0.432 z m 0.252,-1.314 q 1.53,0 2.142,-0.828 0.63,-0.846 0.63,-2.538 v -0.288 q 0,-1.8 -0.594,-2.754 -0.594,-0.972 -2.196,-0.972 -1.278,0 -1.926,1.026 -0.63,1.008 -0.63,2.718 0,1.728 0.63,2.682 0.648,0.954 1.944,0.954 z"
       style="font-weight:normal;font-family:'Noto Sans';-inkscape-font-specification:'Noto Sans';baseline-shift:baseline"
       id="path27282" />
    <path
       d="m 115.40691,173.422 q 1.242,0 2.124,0.54 0.9,0.54 1.368,1.53 0.486,0.972 0.486,2.286 v 0.954 h -6.606 q 0.036,1.638 0.828,2.502 0.81,0.846 2.25,0.846 0.918,0 1.62,-0.162 0.72,-0.18 1.476,-0.504 v 1.386 q -0.738,0.324 -1.458,0.468 -0.72,0.162 -1.71,0.162 -1.368,0 -2.43,-0.558 -1.044,-0.558 -1.638,-1.656 -0.576,-1.116 -0.576,-2.718 0,-1.584 0.522,-2.718 0.54,-1.134 1.494,-1.746 0.972,-0.612 2.25,-0.612 z m -0.018,1.296 q -1.134,0 -1.8,0.738 -0.648,0.72 -0.774,2.016 h 4.914 q -0.018,-1.224 -0.576,-1.98 -0.558,-0.774 -1.764,-0.774 z"
       style="font-weight:normal;font-family:'Noto Sans';-inkscape-font-specification:'Noto Sans';baseline-shift:baseline"
       id="path27284" />
    <path
       d="m 126.33289,173.422 q 0.27,0 0.576,0.036 0.324,0.018 0.558,0.072 l -0.198,1.458 q -0.234,-0.054 -0.522,-0.09 -0.27,-0.036 -0.522,-0.036 -0.738,0 -1.386,0.414 -0.648,0.396 -1.044,1.134 -0.378,0.72 -0.378,1.692 v 5.148 h -1.584 v -9.648 h 1.296 l 0.18,1.764 h 0.072 q 0.468,-0.792 1.206,-1.368 0.738,-0.576 1.746,-0.576 z"
       style="font-weight:normal;font-family:'Noto Sans';-inkscape-font-specification:'Noto Sans';baseline-shift:baseline"
       id="path27286" />
  </g>
  <g
     aria-label="Auth Provider"
     id="text12182-3"
     style="font-weight:bold;font-size:18px;line-height:1.25;font-family:'Open Sans';-inkscape-font-specification:'Open Sans, Bold';font-variant-ligatures:none;fill:#ffffff;stroke-width:0.75">
    <path
       d="m 187.26111,183.25 -1.548,-3.978 h -5.094 l -1.53,3.978 h -1.638 l 5.022,-12.906 h 1.458 l 5.004,12.906 z m -3.474,-9.306 q -0.054,-0.144 -0.18,-0.522 -0.126,-0.378 -0.252,-0.774 -0.108,-0.414 -0.18,-0.63 -0.126,0.558 -0.288,1.098 -0.162,0.522 -0.27,0.828 l -1.458,3.888 h 4.068 z"
       style="font-weight:normal;font-family:'Noto Sans';-inkscape-font-specification:'Noto Sans';baseline-shift:baseline"
       id="path27221" />
    <path
       d="m 198.54711,173.602 v 9.648 h -1.296 l -0.234,-1.278 h -0.072 q -0.468,0.756 -1.296,1.116 -0.828,0.342 -1.764,0.342 -1.746,0 -2.628,-0.828 -0.882,-0.846 -0.882,-2.682 v -6.318 h 1.602 v 6.21 q 0,2.304 2.142,2.304 1.602,0 2.214,-0.9 0.63,-0.9 0.63,-2.592 v -5.022 z"
       style="font-weight:normal;font-family:'Noto Sans';-inkscape-font-specification:'Noto Sans';baseline-shift:baseline"
       id="path27223" />
    <path
       d="m 204.82908,182.134 q 0.36,0 0.738,-0.054 0.378,-0.072 0.612,-0.144 v 1.206 q -0.252,0.126 -0.72,0.198 -0.468,0.09 -0.9,0.09 -0.756,0 -1.404,-0.252 -0.63,-0.27 -1.026,-0.918 -0.396,-0.648 -0.396,-1.818 v -5.616 h -1.368 v -0.756 l 1.386,-0.63 0.63,-2.052 h 0.936 v 2.214 h 2.79 v 1.224 h -2.79 v 5.58 q 0,0.882 0.414,1.314 0.432,0.414 1.098,0.414 z"
       style="font-weight:normal;font-family:'Noto Sans';-inkscape-font-specification:'Noto Sans';baseline-shift:baseline"
       id="path27225" />
    <path
       d="m 209.68904,173.584 q 0,0.72 -0.09,1.35 h 0.108 q 0.468,-0.738 1.26,-1.116 0.81,-0.378 1.746,-0.378 1.764,0 2.646,0.846 0.882,0.828 0.882,2.682 v 6.282 h -1.566 v -6.174 q 0,-2.322 -2.16,-2.322 -1.62,0 -2.232,0.918 -0.594,0.9 -0.594,2.592 v 4.986 h -1.584 v -13.68 h 1.584 z"
       style="font-weight:normal;font-family:'Noto Sans';-inkscape-font-specification:'Noto Sans';baseline-shift:baseline"
       id="path27227" />
    <path
       d="m 227.52698,170.398 q 2.52,0 3.672,0.99 1.152,0.99 1.152,2.79 0,1.062 -0.486,1.998 -0.468,0.918 -1.602,1.494 -1.116,0.576 -3.042,0.576 h -1.476 v 5.004 h -1.62 v -12.852 z m -0.144,1.386 h -1.638 v 5.076 h 1.296 q 1.836,0 2.736,-0.594 0.9,-0.594 0.9,-2.016 0,-1.242 -0.792,-1.854 -0.792,-0.612 -2.502,-0.612 z"
       style="font-weight:normal;font-family:'Noto Sans';-inkscape-font-specification:'Noto Sans';baseline-shift:baseline"
       id="path27229" />
    <path
       d="m 239.29897,173.422 q 0.27,0 0.576,0.036 0.324,0.018 0.558,0.072 l -0.198,1.458 q -0.234,-0.054 -0.522,-0.09 -0.27,-0.036 -0.522,-0.036 -0.738,0 -1.386,0.414 -0.648,0.396 -1.044,1.134 -0.378,0.72 -0.378,1.692 v 5.148 h -1.584 v -9.648 h 1.296 l 0.18,1.764 h 0.072 q 0.468,-0.792 1.206,-1.368 0.738,-0.576 1.746,-0.576 z"
       style="font-weight:normal;font-family:'Noto Sans';-inkscape-font-specification:'Noto Sans';baseline-shift:baseline"
       id="path27231" />
    <path
       d="m 250.26093,178.408 q 0,2.394 -1.224,3.708 -1.206,1.314 -3.276,1.314 -1.278,0 -2.286,-0.576 -0.99,-0.594 -1.566,-1.71 -0.576,-1.134 -0.576,-2.736 0,-2.394 1.206,-3.69 1.206,-1.296 3.276,-1.296 1.314,0 2.304,0.594 1.008,0.576 1.566,1.692 0.576,1.098 0.576,2.7 z m -7.29,0 q 0,1.71 0.666,2.718 0.684,0.99 2.16,0.99 1.458,0 2.142,-0.99 0.684,-1.008 0.684,-2.718 0,-1.71 -0.684,-2.682 -0.684,-0.972 -2.16,-0.972 -1.476,0 -2.142,0.972 -0.666,0.972 -0.666,2.682 z"
       style="font-weight:normal;font-family:'Noto Sans';-inkscape-font-specification:'Noto Sans';baseline-shift:baseline"
       id="path27233" />
    <path
       d="m 254.52691,183.25 -3.654,-9.648 h 1.692 l 2.052,5.688 q 0.144,0.396 0.306,0.882 0.162,0.486 0.288,0.936 0.126,0.432 0.18,0.738 h 0.072 q 0.072,-0.306 0.198,-0.756 0.144,-0.45 0.306,-0.936 0.18,-0.486 0.306,-0.864 l 2.052,-5.688 h 1.692 l -3.672,9.648 z"
       style="font-weight:normal;font-family:'Noto Sans';-inkscape-font-specification:'Noto Sans';baseline-shift:baseline"
       id="path27235" />
    <path
       d="m 262.35691,169.984 q 0.36,0 0.63,0.252 0.288,0.234 0.288,0.756 0,0.504 -0.288,0.756 -0.27,0.252 -0.63,0.252 -0.396,0 -0.666,-0.252 -0.27,-0.252 -0.27,-0.756 0,-0.522 0.27,-0.756 0.27,-0.252 0.666,-0.252 z m 0.774,3.618 v 9.648 h -1.584 v -9.648 z"
       style="font-weight:normal;font-family:'Noto Sans';-inkscape-font-specification:'Noto Sans';baseline-shift:baseline"
       id="path27237" />
    <path
       d="m 269.61089,183.43 q -1.8,0 -2.88,-1.242 -1.08,-1.26 -1.08,-3.744 0,-2.484 1.08,-3.744 1.098,-1.278 2.898,-1.278 1.116,0 1.818,0.414 0.72,0.414 1.17,1.008 h 0.108 q -0.018,-0.234 -0.072,-0.684 -0.036,-0.468 -0.036,-0.738 v -3.852 h 1.584 v 13.68 h -1.278 l -0.234,-1.296 h -0.072 q -0.432,0.612 -1.152,1.044 -0.72,0.432 -1.854,0.432 z m 0.252,-1.314 q 1.53,0 2.142,-0.828 0.63,-0.846 0.63,-2.538 v -0.288 q 0,-1.8 -0.594,-2.754 -0.594,-0.972 -2.196,-0.972 -1.278,0 -1.926,1.026 -0.63,1.008 -0.63,2.718 0,1.728 0.63,2.682 0.648,0.954 1.944,0.954 z"
       style="font-weight:normal;font-family:'Noto Sans';-inkscape-font-specification:'Noto Sans';baseline-shift:baseline"
       id="path27239" />
    <path
       d="m 280.98689,173.422 q 1.242,0 2.124,0.54 0.9,0.54 1.368,1.53 0.486,0.972 0.486,2.286 v 0.954 h -6.606 q 0.036,1.638 0.828,2.502 0.81,0.846 2.25,0.846 0.918,0 1.62,-0.162 0.72,-0.18 1.476,-0.504 v 1.386 q -0.738,0.324 -1.458,0.468 -0.72,0.162 -1.71,0.162 -1.368,0 -2.43,-0.558 -1.044,-0.558 -1.638,-1.656 -0.576,-1.116 -0.576,-2.718 0,-1.584 0.522,-2.718 0.54,-1.134 1.494,-1.746 0.972,-0.612 2.25,-0.612 z m -0.018,1.296 q -1.134,0 -1.8,0.738 -0.648,0.72 -0.774,2.016 h 4.914 q -0.018,-1.224 -0.576,-1.98 -0.558,-0.774 -1.764,-0.774 z"
       style="font-weight:normal;font-family:'Noto Sans';-inkscape-font-specification:'Noto Sans';baseline-shift:baseline"
       id="path27241" />
    <path
       d="m 291.91287,173.422 q 0.27,0 0.576,0.036 0.324,0.018 0.558,0.072 l -0.198,1.458 q -0.234,-0.054 -0.522,-0.09 -0.27,-0.036 -0.522,-0.036 -0.738,0 -1.386,0.414 -0.648,0.396 -1.044,1.134 -0.378,0.72 -0.378,1.692 v 5.148 h -1.584 v -9.648 h 1.296 l 0.18,1.764 h 0.072 q 0.468,-0.792 1.206,-1.368 0.738,-0.576 1.746,-0.576 z"
       style="font-weight:normal;font-family:'Noto Sans';-inkscape-font-specification:'Noto Sans';baseline-shift:baseline"
       id="path27243" />
  </g>
</svg>
