<?xml version="1.0" encoding="UTF-8" standalone="no"?><!-- Generator: Gravit.io --><svg xmlns="http://www.w3.org/2000/svg" xmlns:xlink="http://www.w3.org/1999/xlink" style="isolation:isolate" viewBox="0 0 305.999 307.324" width="305.999pt" height="307.324pt"><rect x="0.499" y="0" width="305" height="61" transform="matrix(1,0,0,1,0,0)" fill="rgb(235,235,235)"/><rect x="0.499" y="246.324" width="305" height="61" transform="matrix(1,0,0,1,0,0)" fill="rgb(255,200,119)"/><rect x="0.499" y="93" width="140.5" height="34.728" transform="matrix(1,0,0,1,0,0)" fill="rgb(215,0,79)"/><rect x="0.499" y="159.136" width="140.5" height="34.728" transform="matrix(1,0,0,1,0,0)" fill="rgb(215,0,79)"/><rect x="164.999" y="159.136" width="140.5" height="34.728" transform="matrix(1,0,0,1,0,0)" fill="rgb(215,0,79)"/><path d=" M 29.669 111.76 L 28.199 111.76 L 28.199 117.74 L 26.269 117.74 L 26.269 103.41 L 30.319 103.41 L 30.319 103.41 Q 31.679 103.41 32.669 103.685 L 32.669 103.685 L 32.669 103.685 Q 33.659 103.96 34.304 104.48 L 34.304 104.48 L 34.304 104.48 Q 34.949 105 35.259 105.735 L 35.259 105.735 L 35.259 105.735 Q 35.569 106.47 35.569 107.38 L 35.569 107.38 L 35.569 107.38 Q 35.569 108.14 35.329 108.8 L 35.329 108.8 L 35.329 108.8 Q 35.089 109.46 34.634 109.985 L 34.634 109.985 L 34.634 109.985 Q 34.179 110.51 33.524 110.88 L 33.524 110.88 L 33.524 110.88 Q 32.869 111.25 32.039 111.44 L 32.039 111.44 L 32.039 111.44 Q 32.399 111.65 32.679 112.05 L 32.679 112.05 L 36.859 117.74 L 35.139 117.74 L 35.139 117.74 Q 34.609 117.74 34.359 117.33 L 34.359 117.33 L 30.639 112.21 L 30.639 112.21 Q 30.469 111.97 30.269 111.865 L 30.269 111.865 L 30.269 111.865 Q 30.069 111.76 29.669 111.76 L 29.669 111.76 L 29.669 111.76 Z  M 28.199 104.94 L 28.199 110.35 L 30.229 110.35 L 30.229 110.35 Q 31.079 110.35 31.724 110.145 L 31.724 110.145 L 31.724 110.145 Q 32.369 109.94 32.804 109.565 L 32.804 109.565 L 32.804 109.565 Q 33.239 109.19 33.459 108.67 L 33.459 108.67 L 33.459 108.67 Q 33.679 108.15 33.679 107.52 L 33.679 107.52 L 33.679 107.52 Q 33.679 106.24 32.834 105.59 L 32.834 105.59 L 32.834 105.59 Q 31.989 104.94 30.319 104.94 L 30.319 104.94 L 28.199 104.94 L 28.199 104.94 Z  M 42.679 107.45 L 42.679 107.45 L 42.679 107.45 Q 43.589 107.45 44.359 107.755 L 44.359 107.755 L 44.359 107.755 Q 45.129 108.06 45.689 108.635 L 45.689 108.635 L 45.689 108.635 Q 46.249 109.21 46.564 110.055 L 46.564 110.055 L 46.564 110.055 Q 46.879 110.9 46.879 111.98 L 46.879 111.98 L 46.879 111.98 Q 46.879 112.4 46.789 112.54 L 46.789 112.54 L 46.789 112.54 Q 46.699 112.68 46.449 112.68 L 46.449 112.68 L 39.709 112.68 L 39.709 112.68 Q 39.729 113.64 39.969 114.35 L 39.969 114.35 L 39.969 114.35 Q 40.209 115.06 40.629 115.535 L 40.629 115.535 L 40.629 115.535 Q 41.049 116.01 41.629 116.245 L 41.629 116.245 L 41.629 116.245 Q 42.209 116.48 42.929 116.48 L 42.929 116.48 L 42.929 116.48 Q 43.599 116.48 44.084 116.325 L 44.084 116.325 L 44.084 116.325 Q 44.569 116.17 44.919 115.99 L 44.919 115.99 L 44.919 115.99 Q 45.269 115.81 45.504 115.655 L 45.504 115.655 L 45.504 115.655 Q 45.739 115.5 45.909 115.5 L 45.909 115.5 L 45.909 115.5 Q 46.129 115.5 46.249 115.67 L 46.249 115.67 L 46.749 116.32 L 46.749 116.32 Q 46.419 116.72 45.959 117.015 L 45.959 117.015 L 45.959 117.015 Q 45.499 117.31 44.974 117.5 L 44.974 117.5 L 44.974 117.5 Q 44.449 117.69 43.889 117.785 L 43.889 117.785 L 43.889 117.785 Q 43.329 117.88 42.779 117.88 L 42.779 117.88 L 42.779 117.88 Q 41.729 117.88 40.844 117.525 L 40.844 117.525 L 40.844 117.525 Q 39.959 117.17 39.314 116.485 L 39.314 116.485 L 39.314 116.485 Q 38.669 115.8 38.309 114.79 L 38.309 114.79 L 38.309 114.79 Q 37.949 113.78 37.949 112.47 L 37.949 112.47 L 37.949 112.47 Q 37.949 111.41 38.274 110.49 L 38.274 110.49 L 38.274 110.49 Q 38.599 109.57 39.209 108.895 L 39.209 108.895 L 39.209 108.895 Q 39.819 108.22 40.699 107.835 L 40.699 107.835 L 40.699 107.835 Q 41.579 107.45 42.679 107.45 Z  M 42.719 108.76 L 42.719 108.76 L 42.719 108.76 Q 41.429 108.76 40.689 109.505 L 40.689 109.505 L 40.689 109.505 Q 39.949 110.25 39.769 111.57 L 39.769 111.57 L 45.279 111.57 L 45.279 111.57 Q 45.279 110.95 45.109 110.435 L 45.109 110.435 L 45.109 110.435 Q 44.939 109.92 44.609 109.545 L 44.609 109.545 L 44.609 109.545 Q 44.279 109.17 43.804 108.965 L 43.804 108.965 L 43.804 108.965 Q 43.329 108.76 42.719 108.76 Z  M 55.349 108.63 L 54.949 109.28 L 54.949 109.28 Q 54.829 109.5 54.579 109.5 L 54.579 109.5 L 54.579 109.5 Q 54.429 109.5 54.239 109.39 L 54.239 109.39 L 54.239 109.39 Q 54.049 109.28 53.774 109.145 L 53.774 109.145 L 53.774 109.145 Q 53.499 109.01 53.119 108.895 L 53.119 108.895 L 53.119 108.895 Q 52.739 108.78 52.219 108.78 L 52.219 108.78 L 52.219 108.78 Q 51.769 108.78 51.409 108.895 L 51.409 108.895 L 51.409 108.895 Q 51.049 109.01 50.794 109.21 L 50.794 109.21 L 50.794 109.21 Q 50.539 109.41 50.404 109.675 L 50.404 109.675 L 50.404 109.675 Q 50.269 109.94 50.269 110.25 L 50.269 110.25 L 50.269 110.25 Q 50.269 110.64 50.494 110.9 L 50.494 110.9 L 50.494 110.9 Q 50.719 111.16 51.089 111.35 L 51.089 111.35 L 51.089 111.35 Q 51.459 111.54 51.929 111.685 L 51.929 111.685 L 51.929 111.685 Q 52.399 111.83 52.894 111.995 L 52.894 111.995 L 52.894 111.995 Q 53.389 112.16 53.859 112.36 L 53.859 112.36 L 53.859 112.36 Q 54.329 112.56 54.699 112.86 L 54.699 112.86 L 54.699 112.86 Q 55.069 113.16 55.294 113.595 L 55.294 113.595 L 55.294 113.595 Q 55.519 114.03 55.519 114.64 L 55.519 114.64 L 55.519 114.64 Q 55.519 115.34 55.269 115.935 L 55.269 115.935 L 55.269 115.935 Q 55.019 116.53 54.529 116.965 L 54.529 116.965 L 54.529 116.965 Q 54.039 117.4 53.329 117.65 L 53.329 117.65 L 53.329 117.65 Q 52.619 117.9 51.689 117.9 L 51.689 117.9 L 51.689 117.9 Q 50.629 117.9 49.769 117.555 L 49.769 117.555 L 49.769 117.555 Q 48.909 117.21 48.309 116.67 L 48.309 116.67 L 48.729 115.99 L 48.729 115.99 Q 48.809 115.86 48.919 115.79 L 48.919 115.79 L 48.919 115.79 Q 49.029 115.72 49.209 115.72 L 49.209 115.72 L 49.209 115.72 Q 49.389 115.72 49.589 115.86 L 49.589 115.86 L 49.589 115.86 Q 49.789 116 50.074 116.17 L 50.074 116.17 L 50.074 116.17 Q 50.359 116.34 50.764 116.48 L 50.764 116.48 L 50.764 116.48 Q 51.169 116.62 51.779 116.62 L 51.779 116.62 L 51.779 116.62 Q 52.299 116.62 52.689 116.485 L 52.689 116.485 L 52.689 116.485 Q 53.079 116.35 53.339 116.12 L 53.339 116.12 L 53.339 116.12 Q 53.599 115.89 53.724 115.59 L 53.724 115.59 L 53.724 115.59 Q 53.849 115.29 53.849 114.95 L 53.849 114.95 L 53.849 114.95 Q 53.849 114.53 53.624 114.255 L 53.624 114.255 L 53.624 114.255 Q 53.399 113.98 53.029 113.785 L 53.029 113.785 L 53.029 113.785 Q 52.659 113.59 52.184 113.445 L 52.184 113.445 L 52.184 113.445 Q 51.709 113.3 51.214 113.14 L 51.214 113.14 L 51.214 113.14 Q 50.719 112.98 50.244 112.775 L 50.244 112.775 L 50.244 112.775 Q 49.769 112.57 49.399 112.26 L 49.399 112.26 L 49.399 112.26 Q 49.029 111.95 48.804 111.495 L 48.804 111.495 L 48.804 111.495 Q 48.579 111.04 48.579 110.39 L 48.579 110.39 L 48.579 110.39 Q 48.579 109.81 48.819 109.275 L 48.819 109.275 L 48.819 109.275 Q 49.059 108.74 49.519 108.335 L 49.519 108.335 L 49.519 108.335 Q 49.979 107.93 50.649 107.69 L 50.649 107.69 L 50.649 107.69 Q 51.319 107.45 52.179 107.45 L 52.179 107.45 L 52.179 107.45 Q 53.179 107.45 53.974 107.765 L 53.974 107.765 L 53.974 107.765 Q 54.769 108.08 55.349 108.63 L 55.349 108.63 L 55.349 108.63 Z  M 61.929 107.45 L 61.929 107.45 L 61.929 107.45 Q 63.039 107.45 63.934 107.82 L 63.934 107.82 L 63.934 107.82 Q 64.829 108.19 65.454 108.87 L 65.454 108.87 L 65.454 108.87 Q 66.079 109.55 66.414 110.515 L 66.414 110.515 L 66.414 110.515 Q 66.749 111.48 66.749 112.67 L 66.749 112.67 L 66.749 112.67 Q 66.749 113.87 66.414 114.83 L 66.414 114.83 L 66.414 114.83 Q 66.079 115.79 65.454 116.47 L 65.454 116.47 L 65.454 116.47 Q 64.829 117.15 63.934 117.515 L 63.934 117.515 L 63.934 117.515 Q 63.039 117.88 61.929 117.88 L 61.929 117.88 L 61.929 117.88 Q 60.819 117.88 59.924 117.515 L 59.924 117.515 L 59.924 117.515 Q 59.029 117.15 58.399 116.47 L 58.399 116.47 L 58.399 116.47 Q 57.769 115.79 57.429 114.83 L 57.429 114.83 L 57.429 114.83 Q 57.089 113.87 57.089 112.67 L 57.089 112.67 L 57.089 112.67 Q 57.089 111.48 57.429 110.515 L 57.429 110.515 L 57.429 110.515 Q 57.769 109.55 58.399 108.87 L 58.399 108.87 L 58.399 108.87 Q 59.029 108.19 59.924 107.82 L 59.924 107.82 L 59.924 107.82 Q 60.819 107.45 61.929 107.45 Z  M 61.929 116.49 L 61.929 116.49 L 61.929 116.49 Q 63.429 116.49 64.169 115.485 L 64.169 115.485 L 64.169 115.485 Q 64.909 114.48 64.909 112.68 L 64.909 112.68 L 64.909 112.68 Q 64.909 110.87 64.169 109.86 L 64.169 109.86 L 64.169 109.86 Q 63.429 108.85 61.929 108.85 L 61.929 108.85 L 61.929 108.85 Q 61.169 108.85 60.609 109.11 L 60.609 109.11 L 60.609 109.11 Q 60.049 109.37 59.674 109.86 L 59.674 109.86 L 59.674 109.86 Q 59.299 110.35 59.114 111.065 L 59.114 111.065 L 59.114 111.065 Q 58.929 111.78 58.929 112.68 L 58.929 112.68 L 58.929 112.68 Q 58.929 113.58 59.114 114.29 L 59.114 114.29 L 59.114 114.29 Q 59.299 115 59.674 115.485 L 59.674 115.485 L 59.674 115.485 Q 60.049 115.97 60.609 116.23 L 60.609 116.23 L 60.609 116.23 Q 61.169 116.49 61.929 116.49 Z  M 68.709 107.61 L 70.489 107.61 L 70.489 114.07 L 70.489 114.07 Q 70.489 115.22 71.019 115.85 L 71.019 115.85 L 71.019 115.85 Q 71.549 116.48 72.619 116.48 L 72.619 116.48 L 72.619 116.48 Q 73.399 116.48 74.089 116.11 L 74.089 116.11 L 74.089 116.11 Q 74.779 115.74 75.359 115.08 L 75.359 115.08 L 75.359 107.61 L 77.139 107.61 L 77.139 117.74 L 76.079 117.74 L 76.079 117.74 Q 75.699 117.74 75.599 117.37 L 75.599 117.37 L 75.459 116.28 L 75.459 116.28 Q 74.799 117.01 73.979 117.455 L 73.979 117.455 L 73.979 117.455 Q 73.159 117.9 72.099 117.9 L 72.099 117.9 L 72.099 117.9 Q 71.269 117.9 70.634 117.625 L 70.634 117.625 L 70.634 117.625 Q 69.999 117.35 69.569 116.85 L 69.569 116.85 L 69.569 116.85 Q 69.139 116.35 68.924 115.64 L 68.924 115.64 L 68.924 115.64 Q 68.709 114.93 68.709 114.07 L 68.709 114.07 L 68.709 107.61 L 68.709 107.61 Z  M 81.849 117.74 L 80.069 117.74 L 80.069 107.61 L 81.089 107.61 L 81.089 107.61 Q 81.379 107.61 81.489 107.72 L 81.489 107.72 L 81.489 107.72 Q 81.599 107.83 81.639 108.1 L 81.639 108.1 L 81.759 109.68 L 81.759 109.68 Q 82.279 108.62 83.044 108.025 L 83.044 108.025 L 83.044 108.025 Q 83.809 107.43 84.839 107.43 L 84.839 107.43 L 84.839 107.43 Q 85.259 107.43 85.599 107.525 L 85.599 107.525 L 85.599 107.525 Q 85.939 107.62 86.229 107.79 L 86.229 107.79 L 85.999 109.12 L 85.999 109.12 Q 85.929 109.37 85.689 109.37 L 85.689 109.37 L 85.689 109.37 Q 85.549 109.37 85.259 109.275 L 85.259 109.275 L 85.259 109.275 Q 84.969 109.18 84.449 109.18 L 84.449 109.18 L 84.449 109.18 Q 83.519 109.18 82.894 109.72 L 82.894 109.72 L 82.894 109.72 Q 82.269 110.26 81.849 111.29 L 81.849 111.29 L 81.849 117.74 L 81.849 117.74 Z  M 95.509 108.77 L 95.039 109.41 L 95.039 109.41 Q 94.959 109.52 94.879 109.58 L 94.879 109.58 L 94.879 109.58 Q 94.799 109.64 94.649 109.64 L 94.649 109.64 L 94.649 109.64 Q 94.499 109.64 94.324 109.515 L 94.324 109.515 L 94.324 109.515 Q 94.149 109.39 93.879 109.24 L 93.879 109.24 L 93.879 109.24 Q 93.609 109.09 93.224 108.965 L 93.224 108.965 L 93.224 108.965 Q 92.839 108.84 92.279 108.84 L 92.279 108.84 L 92.279 108.84 Q 91.539 108.84 90.969 109.105 L 90.969 109.105 L 90.969 109.105 Q 90.399 109.37 90.014 109.87 L 90.014 109.87 L 90.014 109.87 Q 89.629 110.37 89.434 111.08 L 89.434 111.08 L 89.434 111.08 Q 89.239 111.79 89.239 112.67 L 89.239 112.67 L 89.239 112.67 Q 89.239 113.59 89.449 114.305 L 89.449 114.305 L 89.449 114.305 Q 89.659 115.02 90.039 115.505 L 90.039 115.505 L 90.039 115.505 Q 90.419 115.99 90.964 116.245 L 90.964 116.245 L 90.964 116.245 Q 91.509 116.5 92.189 116.5 L 92.189 116.5 L 92.189 116.5 Q 92.839 116.5 93.259 116.345 L 93.259 116.345 L 93.259 116.345 Q 93.679 116.19 93.959 116 L 93.959 116 L 93.959 116 Q 94.239 115.81 94.419 115.655 L 94.419 115.655 L 94.419 115.655 Q 94.599 115.5 94.779 115.5 L 94.779 115.5 L 94.779 115.5 Q 95.009 115.5 95.119 115.67 L 95.119 115.67 L 95.619 116.32 L 95.619 116.32 Q 94.959 117.13 93.969 117.505 L 93.969 117.505 L 93.969 117.505 Q 92.979 117.88 91.879 117.88 L 91.879 117.88 L 91.879 117.88 Q 90.929 117.88 90.114 117.53 L 90.114 117.53 L 90.114 117.53 Q 89.299 117.18 88.699 116.515 L 88.699 116.515 L 88.699 116.515 Q 88.099 115.85 87.754 114.88 L 87.754 114.88 L 87.754 114.88 Q 87.409 113.91 87.409 112.67 L 87.409 112.67 L 87.409 112.67 Q 87.409 111.54 87.724 110.58 L 87.724 110.58 L 87.724 110.58 Q 88.039 109.62 88.644 108.925 L 88.644 108.925 L 88.644 108.925 Q 89.249 108.23 90.139 107.84 L 90.139 107.84 L 90.139 107.84 Q 91.029 107.45 92.179 107.45 L 92.179 107.45 L 92.179 107.45 Q 93.239 107.45 94.059 107.795 L 94.059 107.795 L 94.059 107.795 Q 94.879 108.14 95.509 108.77 L 95.509 108.77 L 95.509 108.77 Z  M 101.479 107.45 L 101.479 107.45 L 101.479 107.45 Q 102.389 107.45 103.159 107.755 L 103.159 107.755 L 103.159 107.755 Q 103.929 108.06 104.489 108.635 L 104.489 108.635 L 104.489 108.635 Q 105.049 109.21 105.364 110.055 L 105.364 110.055 L 105.364 110.055 Q 105.679 110.9 105.679 111.98 L 105.679 111.98 L 105.679 111.98 Q 105.679 112.4 105.589 112.54 L 105.589 112.54 L 105.589 112.54 Q 105.499 112.68 105.249 112.68 L 105.249 112.68 L 98.509 112.68 L 98.509 112.68 Q 98.529 113.64 98.769 114.35 L 98.769 114.35 L 98.769 114.35 Q 99.009 115.06 99.429 115.535 L 99.429 115.535 L 99.429 115.535 Q 99.849 116.01 100.429 116.245 L 100.429 116.245 L 100.429 116.245 Q 101.009 116.48 101.729 116.48 L 101.729 116.48 L 101.729 116.48 Q 102.399 116.48 102.884 116.325 L 102.884 116.325 L 102.884 116.325 Q 103.369 116.17 103.719 115.99 L 103.719 115.99 L 103.719 115.99 Q 104.069 115.81 104.304 115.655 L 104.304 115.655 L 104.304 115.655 Q 104.539 115.5 104.709 115.5 L 104.709 115.5 L 104.709 115.5 Q 104.929 115.5 105.049 115.67 L 105.049 115.67 L 105.549 116.32 L 105.549 116.32 Q 105.219 116.72 104.759 117.015 L 104.759 117.015 L 104.759 117.015 Q 104.299 117.31 103.774 117.5 L 103.774 117.5 L 103.774 117.5 Q 103.249 117.69 102.689 117.785 L 102.689 117.785 L 102.689 117.785 Q 102.129 117.88 101.579 117.88 L 101.579 117.88 L 101.579 117.88 Q 100.529 117.88 99.644 117.525 L 99.644 117.525 L 99.644 117.525 Q 98.759 117.17 98.114 116.485 L 98.114 116.485 L 98.114 116.485 Q 97.469 115.8 97.109 114.79 L 97.109 114.79 L 97.109 114.79 Q 96.749 113.78 96.749 112.47 L 96.749 112.47 L 96.749 112.47 Q 96.749 111.41 97.074 110.49 L 97.074 110.49 L 97.074 110.49 Q 97.399 109.57 98.009 108.895 L 98.009 108.895 L 98.009 108.895 Q 98.619 108.22 99.499 107.835 L 99.499 107.835 L 99.499 107.835 Q 100.379 107.45 101.479 107.45 Z  M 101.519 108.76 L 101.519 108.76 L 101.519 108.76 Q 100.229 108.76 99.489 109.505 L 99.489 109.505 L 99.489 109.505 Q 98.749 110.25 98.569 111.57 L 98.569 111.57 L 104.079 111.57 L 104.079 111.57 Q 104.079 110.95 103.909 110.435 L 103.909 110.435 L 103.909 110.435 Q 103.739 109.92 103.409 109.545 L 103.409 109.545 L 103.409 109.545 Q 103.079 109.17 102.604 108.965 L 102.604 108.965 L 102.604 108.965 Q 102.129 108.76 101.519 108.76 Z  M 114.149 108.63 L 113.749 109.28 L 113.749 109.28 Q 113.629 109.5 113.379 109.5 L 113.379 109.5 L 113.379 109.5 Q 113.229 109.5 113.039 109.39 L 113.039 109.39 L 113.039 109.39 Q 112.849 109.28 112.574 109.145 L 112.574 109.145 L 112.574 109.145 Q 112.299 109.01 111.919 108.895 L 111.919 108.895 L 111.919 108.895 Q 111.539 108.78 111.019 108.78 L 111.019 108.78 L 111.019 108.78 Q 110.569 108.78 110.209 108.895 L 110.209 108.895 L 110.209 108.895 Q 109.849 109.01 109.594 109.21 L 109.594 109.21 L 109.594 109.21 Q 109.339 109.41 109.204 109.675 L 109.204 109.675 L 109.204 109.675 Q 109.069 109.94 109.069 110.25 L 109.069 110.25 L 109.069 110.25 Q 109.069 110.64 109.294 110.9 L 109.294 110.9 L 109.294 110.9 Q 109.519 111.16 109.889 111.35 L 109.889 111.35 L 109.889 111.35 Q 110.259 111.54 110.729 111.685 L 110.729 111.685 L 110.729 111.685 Q 111.199 111.83 111.694 111.995 L 111.694 111.995 L 111.694 111.995 Q 112.189 112.16 112.659 112.36 L 112.659 112.36 L 112.659 112.36 Q 113.129 112.56 113.499 112.86 L 113.499 112.86 L 113.499 112.86 Q 113.869 113.16 114.094 113.595 L 114.094 113.595 L 114.094 113.595 Q 114.319 114.03 114.319 114.64 L 114.319 114.64 L 114.319 114.64 Q 114.319 115.34 114.069 115.935 L 114.069 115.935 L 114.069 115.935 Q 113.819 116.53 113.329 116.965 L 113.329 116.965 L 113.329 116.965 Q 112.839 117.4 112.129 117.65 L 112.129 117.65 L 112.129 117.65 Q 111.419 117.9 110.489 117.9 L 110.489 117.9 L 110.489 117.9 Q 109.429 117.9 108.569 117.555 L 108.569 117.555 L 108.569 117.555 Q 107.709 117.21 107.109 116.67 L 107.109 116.67 L 107.529 115.99 L 107.529 115.99 Q 107.609 115.86 107.719 115.79 L 107.719 115.79 L 107.719 115.79 Q 107.829 115.72 108.009 115.72 L 108.009 115.72 L 108.009 115.72 Q 108.189 115.72 108.389 115.86 L 108.389 115.86 L 108.389 115.86 Q 108.589 116 108.874 116.17 L 108.874 116.17 L 108.874 116.17 Q 109.159 116.34 109.564 116.48 L 109.564 116.48 L 109.564 116.48 Q 109.969 116.62 110.579 116.62 L 110.579 116.62 L 110.579 116.62 Q 111.099 116.62 111.489 116.485 L 111.489 116.485 L 111.489 116.485 Q 111.879 116.35 112.139 116.12 L 112.139 116.12 L 112.139 116.12 Q 112.399 115.89 112.524 115.59 L 112.524 115.59 L 112.524 115.59 Q 112.649 115.29 112.649 114.95 L 112.649 114.95 L 112.649 114.95 Q 112.649 114.53 112.424 114.255 L 112.424 114.255 L 112.424 114.255 Q 112.199 113.98 111.829 113.785 L 111.829 113.785 L 111.829 113.785 Q 111.459 113.59 110.984 113.445 L 110.984 113.445 L 110.984 113.445 Q 110.509 113.3 110.014 113.14 L 110.014 113.14 L 110.014 113.14 Q 109.519 112.98 109.044 112.775 L 109.044 112.775 L 109.044 112.775 Q 108.569 112.57 108.199 112.26 L 108.199 112.26 L 108.199 112.26 Q 107.829 111.95 107.604 111.495 L 107.604 111.495 L 107.604 111.495 Q 107.379 111.04 107.379 110.39 L 107.379 110.39 L 107.379 110.39 Q 107.379 109.81 107.619 109.275 L 107.619 109.275 L 107.619 109.275 Q 107.859 108.74 108.319 108.335 L 108.319 108.335 L 108.319 108.335 Q 108.779 107.93 109.449 107.69 L 109.449 107.69 L 109.449 107.69 Q 110.119 107.45 110.979 107.45 L 110.979 107.45 L 110.979 107.45 Q 111.979 107.45 112.774 107.765 L 112.774 107.765 L 112.774 107.765 Q 113.569 108.08 114.149 108.63 L 114.149 108.63 L 114.149 108.63 Z " fill="rgb(255,255,255)"/><path d=" M 63.829 178.516 L 61.529 178.516 L 61.529 183.876 L 59.599 183.876 L 59.599 169.546 L 63.829 169.546 L 63.829 169.546 Q 65.189 169.546 66.194 169.861 L 66.194 169.861 L 66.194 169.861 Q 67.199 170.176 67.859 170.756 L 67.859 170.756 L 67.859 170.756 Q 68.519 171.336 68.844 172.156 L 68.844 172.156 L 68.844 172.156 Q 69.169 172.976 69.169 173.986 L 69.169 173.986 L 69.169 173.986 Q 69.169 174.986 68.819 175.816 L 68.819 175.816 L 68.819 175.816 Q 68.469 176.646 67.794 177.246 L 67.794 177.246 L 67.794 177.246 Q 67.119 177.846 66.119 178.181 L 66.119 178.181 L 66.119 178.181 Q 65.119 178.516 63.829 178.516 L 63.829 178.516 L 63.829 178.516 Z  M 61.529 171.076 L 61.529 176.976 L 63.829 176.976 L 63.829 176.976 Q 64.659 176.976 65.294 176.756 L 65.294 176.756 L 65.294 176.756 Q 65.929 176.536 66.359 176.141 L 66.359 176.141 L 66.359 176.141 Q 66.789 175.746 67.009 175.196 L 67.009 175.196 L 67.009 175.196 Q 67.229 174.646 67.229 173.986 L 67.229 173.986 L 67.229 173.986 Q 67.229 172.616 66.384 171.846 L 66.384 171.846 L 66.384 171.846 Q 65.539 171.076 63.829 171.076 L 63.829 171.076 L 61.529 171.076 L 61.529 171.076 Z  M 73.119 183.876 L 71.339 183.876 L 71.339 173.746 L 72.359 173.746 L 72.359 173.746 Q 72.649 173.746 72.759 173.856 L 72.759 173.856 L 72.759 173.856 Q 72.869 173.966 72.909 174.236 L 72.909 174.236 L 73.029 175.816 L 73.029 175.816 Q 73.549 174.756 74.314 174.161 L 74.314 174.161 L 74.314 174.161 Q 75.079 173.566 76.109 173.566 L 76.109 173.566 L 76.109 173.566 Q 76.529 173.566 76.869 173.661 L 76.869 173.661 L 76.869 173.661 Q 77.209 173.756 77.499 173.926 L 77.499 173.926 L 77.269 175.256 L 77.269 175.256 Q 77.199 175.506 76.959 175.506 L 76.959 175.506 L 76.959 175.506 Q 76.819 175.506 76.529 175.411 L 76.529 175.411 L 76.529 175.411 Q 76.239 175.316 75.719 175.316 L 75.719 175.316 L 75.719 175.316 Q 74.789 175.316 74.164 175.856 L 74.164 175.856 L 74.164 175.856 Q 73.539 176.396 73.119 177.426 L 73.119 177.426 L 73.119 183.876 L 73.119 183.876 Z  M 83.499 173.586 L 83.499 173.586 L 83.499 173.586 Q 84.609 173.586 85.504 173.956 L 85.504 173.956 L 85.504 173.956 Q 86.399 174.326 87.024 175.006 L 87.024 175.006 L 87.024 175.006 Q 87.649 175.686 87.984 176.651 L 87.984 176.651 L 87.984 176.651 Q 88.319 177.616 88.319 178.806 L 88.319 178.806 L 88.319 178.806 Q 88.319 180.006 87.984 180.966 L 87.984 180.966 L 87.984 180.966 Q 87.649 181.926 87.024 182.606 L 87.024 182.606 L 87.024 182.606 Q 86.399 183.286 85.504 183.651 L 85.504 183.651 L 85.504 183.651 Q 84.609 184.016 83.499 184.016 L 83.499 184.016 L 83.499 184.016 Q 82.389 184.016 81.494 183.651 L 81.494 183.651 L 81.494 183.651 Q 80.599 183.286 79.969 182.606 L 79.969 182.606 L 79.969 182.606 Q 79.339 181.926 78.999 180.966 L 78.999 180.966 L 78.999 180.966 Q 78.659 180.006 78.659 178.806 L 78.659 178.806 L 78.659 178.806 Q 78.659 177.616 78.999 176.651 L 78.999 176.651 L 78.999 176.651 Q 79.339 175.686 79.969 175.006 L 79.969 175.006 L 79.969 175.006 Q 80.599 174.326 81.494 173.956 L 81.494 173.956 L 81.494 173.956 Q 82.389 173.586 83.499 173.586 Z  M 83.499 182.626 L 83.499 182.626 L 83.499 182.626 Q 84.999 182.626 85.739 181.621 L 85.739 181.621 L 85.739 181.621 Q 86.479 180.616 86.479 178.816 L 86.479 178.816 L 86.479 178.816 Q 86.479 177.006 85.739 175.996 L 85.739 175.996 L 85.739 175.996 Q 84.999 174.986 83.499 174.986 L 83.499 174.986 L 83.499 174.986 Q 82.739 174.986 82.179 175.246 L 82.179 175.246 L 82.179 175.246 Q 81.619 175.506 81.244 175.996 L 81.244 175.996 L 81.244 175.996 Q 80.869 176.486 80.684 177.201 L 80.684 177.201 L 80.684 177.201 Q 80.499 177.916 80.499 178.816 L 80.499 178.816 L 80.499 178.816 Q 80.499 179.716 80.684 180.426 L 80.684 180.426 L 80.684 180.426 Q 80.869 181.136 81.244 181.621 L 81.244 181.621 L 81.244 181.621 Q 81.619 182.106 82.179 182.366 L 82.179 182.366 L 82.179 182.366 Q 82.739 182.626 83.499 182.626 Z  M 93.109 183.876 L 88.979 173.746 L 90.439 173.746 L 90.439 173.746 Q 90.649 173.746 90.789 173.856 L 90.789 173.856 L 90.789 173.856 Q 90.929 173.966 90.989 174.116 L 90.989 174.116 L 93.559 180.636 L 93.559 180.636 Q 93.699 180.996 93.779 181.356 L 93.779 181.356 L 93.779 181.356 Q 93.859 181.716 93.929 182.066 L 93.929 182.066 L 93.929 182.066 Q 94.009 181.716 94.099 181.356 L 94.099 181.356 L 94.099 181.356 Q 94.189 180.996 94.329 180.636 L 94.329 180.636 L 96.929 174.116 L 96.929 174.116 Q 96.989 173.956 97.124 173.851 L 97.124 173.851 L 97.124 173.851 Q 97.259 173.746 97.459 173.746 L 97.459 173.746 L 98.849 173.746 L 94.719 183.876 L 93.109 183.876 L 93.109 183.876 Z  M 108.429 183.876 L 107.369 183.876 L 107.369 183.876 Q 106.989 183.876 106.889 183.506 L 106.889 183.506 L 106.729 182.276 L 106.729 182.276 Q 106.079 183.066 105.244 183.541 L 105.244 183.541 L 105.244 183.541 Q 104.409 184.016 103.329 184.016 L 103.329 184.016 L 103.329 184.016 Q 102.459 184.016 101.749 183.681 L 101.749 183.681 L 101.749 183.681 Q 101.039 183.346 100.539 182.696 L 100.539 182.696 L 100.539 182.696 Q 100.039 182.046 99.769 181.076 L 99.769 181.076 L 99.769 181.076 Q 99.499 180.106 99.499 178.846 L 99.499 178.846 L 99.499 178.846 Q 99.499 177.726 99.799 176.761 L 99.799 176.761 L 99.799 176.761 Q 100.099 175.796 100.664 175.086 L 100.664 175.086 L 100.664 175.086 Q 101.229 174.376 102.039 173.971 L 102.039 173.971 L 102.039 173.971 Q 102.849 173.566 103.879 173.566 L 103.879 173.566 L 103.879 173.566 Q 104.809 173.566 105.469 173.881 L 105.469 173.881 L 105.469 173.881 Q 106.129 174.196 106.649 174.766 L 106.649 174.766 L 106.649 169.146 L 108.429 169.146 L 108.429 183.876 L 108.429 183.876 Z  M 103.919 182.576 L 103.919 182.576 L 103.919 182.576 Q 104.789 182.576 105.444 182.176 L 105.444 182.176 L 105.444 182.176 Q 106.099 181.776 106.649 181.046 L 106.649 181.046 L 106.649 176.146 L 106.649 176.146 Q 106.159 175.486 105.574 175.221 L 105.574 175.221 L 105.574 175.221 Q 104.989 174.956 104.279 174.956 L 104.279 174.956 L 104.279 174.956 Q 102.859 174.956 102.099 175.966 L 102.099 175.966 L 102.099 175.966 Q 101.339 176.976 101.339 178.846 L 101.339 178.846 L 101.339 178.846 Q 101.339 179.836 101.509 180.541 L 101.509 180.541 L 101.509 180.541 Q 101.679 181.246 102.009 181.701 L 102.009 181.701 L 102.009 181.701 Q 102.339 182.156 102.819 182.366 L 102.819 182.366 L 102.819 182.366 Q 103.299 182.576 103.919 182.576 Z  M 115.429 173.586 L 115.429 173.586 L 115.429 173.586 Q 116.339 173.586 117.109 173.891 L 117.109 173.891 L 117.109 173.891 Q 117.879 174.196 118.439 174.771 L 118.439 174.771 L 118.439 174.771 Q 118.999 175.346 119.314 176.191 L 119.314 176.191 L 119.314 176.191 Q 119.629 177.036 119.629 178.116 L 119.629 178.116 L 119.629 178.116 Q 119.629 178.536 119.539 178.676 L 119.539 178.676 L 119.539 178.676 Q 119.449 178.816 119.199 178.816 L 119.199 178.816 L 112.459 178.816 L 112.459 178.816 Q 112.479 179.776 112.719 180.486 L 112.719 180.486 L 112.719 180.486 Q 112.959 181.196 113.379 181.671 L 113.379 181.671 L 113.379 181.671 Q 113.799 182.146 114.379 182.381 L 114.379 182.381 L 114.379 182.381 Q 114.959 182.616 115.679 182.616 L 115.679 182.616 L 115.679 182.616 Q 116.349 182.616 116.834 182.461 L 116.834 182.461 L 116.834 182.461 Q 117.319 182.306 117.669 182.126 L 117.669 182.126 L 117.669 182.126 Q 118.019 181.946 118.254 181.791 L 118.254 181.791 L 118.254 181.791 Q 118.489 181.636 118.659 181.636 L 118.659 181.636 L 118.659 181.636 Q 118.879 181.636 118.999 181.806 L 118.999 181.806 L 119.499 182.456 L 119.499 182.456 Q 119.169 182.856 118.709 183.151 L 118.709 183.151 L 118.709 183.151 Q 118.249 183.446 117.724 183.636 L 117.724 183.636 L 117.724 183.636 Q 117.199 183.826 116.639 183.921 L 116.639 183.921 L 116.639 183.921 Q 116.079 184.016 115.529 184.016 L 115.529 184.016 L 115.529 184.016 Q 114.479 184.016 113.594 183.661 L 113.594 183.661 L 113.594 183.661 Q 112.709 183.306 112.064 182.621 L 112.064 182.621 L 112.064 182.621 Q 111.419 181.936 111.059 180.926 L 111.059 180.926 L 111.059 180.926 Q 110.699 179.916 110.699 178.606 L 110.699 178.606 L 110.699 178.606 Q 110.699 177.546 111.024 176.626 L 111.024 176.626 L 111.024 176.626 Q 111.349 175.706 111.959 175.031 L 111.959 175.031 L 111.959 175.031 Q 112.569 174.356 113.449 173.971 L 113.449 173.971 L 113.449 173.971 Q 114.329 173.586 115.429 173.586 Z  M 115.469 174.896 L 115.469 174.896 L 115.469 174.896 Q 114.179 174.896 113.439 175.641 L 113.439 175.641 L 113.439 175.641 Q 112.699 176.386 112.519 177.706 L 112.519 177.706 L 118.029 177.706 L 118.029 177.706 Q 118.029 177.086 117.859 176.571 L 117.859 176.571 L 117.859 176.571 Q 117.689 176.056 117.359 175.681 L 117.359 175.681 L 117.359 175.681 Q 117.029 175.306 116.554 175.101 L 116.554 175.101 L 116.554 175.101 Q 116.079 174.896 115.469 174.896 Z  M 123.679 183.876 L 121.899 183.876 L 121.899 173.746 L 122.919 173.746 L 122.919 173.746 Q 123.209 173.746 123.319 173.856 L 123.319 173.856 L 123.319 173.856 Q 123.429 173.966 123.469 174.236 L 123.469 174.236 L 123.589 175.816 L 123.589 175.816 Q 124.109 174.756 124.874 174.161 L 124.874 174.161 L 124.874 174.161 Q 125.639 173.566 126.669 173.566 L 126.669 173.566 L 126.669 173.566 Q 127.089 173.566 127.429 173.661 L 127.429 173.661 L 127.429 173.661 Q 127.769 173.756 128.059 173.926 L 128.059 173.926 L 127.829 175.256 L 127.829 175.256 Q 127.759 175.506 127.519 175.506 L 127.519 175.506 L 127.519 175.506 Q 127.379 175.506 127.089 175.411 L 127.089 175.411 L 127.089 175.411 Q 126.799 175.316 126.279 175.316 L 126.279 175.316 L 126.279 175.316 Q 125.349 175.316 124.724 175.856 L 124.724 175.856 L 124.724 175.856 Q 124.099 176.396 123.679 177.426 L 123.679 177.426 L 123.679 183.876 L 123.679 183.876 Z  M 25.159 176.716 L 25.159 176.716 L 25.159 176.716 Q 25.159 178.326 24.649 179.646 L 24.649 179.646 L 24.649 179.646 Q 24.139 180.966 23.209 181.906 L 23.209 181.906 L 23.209 181.906 Q 22.279 182.846 20.979 183.361 L 20.979 183.361 L 20.979 183.361 Q 19.679 183.876 18.099 183.876 L 18.099 183.876 L 12.739 183.876 L 12.739 169.546 L 18.099 169.546 L 18.099 169.546 Q 19.679 169.546 20.979 170.061 L 20.979 170.061 L 20.979 170.061 Q 22.279 170.576 23.209 171.521 L 23.209 171.521 L 23.209 171.521 Q 24.139 172.466 24.649 173.786 L 24.649 173.786 L 24.649 173.786 Q 25.159 175.106 25.159 176.716 Z  M 23.169 176.716 L 23.169 176.716 L 23.169 176.716 Q 23.169 175.396 22.809 174.356 L 22.809 174.356 L 22.809 174.356 Q 22.449 173.316 21.789 172.596 L 21.789 172.596 L 21.789 172.596 Q 21.129 171.876 20.189 171.496 L 20.189 171.496 L 20.189 171.496 Q 19.249 171.116 18.099 171.116 L 18.099 171.116 L 14.689 171.116 L 14.689 182.306 L 18.099 182.306 L 18.099 182.306 Q 19.249 182.306 20.189 181.926 L 20.189 181.926 L 20.189 181.926 Q 21.129 181.546 21.789 180.831 L 21.789 180.831 L 21.789 180.831 Q 22.449 180.116 22.809 179.076 L 22.809 179.076 L 22.809 179.076 Q 23.169 178.036 23.169 176.716 Z  M 34.959 177.396 L 34.959 183.876 L 34.169 183.876 L 34.169 183.876 Q 33.909 183.876 33.749 183.796 L 33.749 183.796 L 33.749 183.796 Q 33.589 183.716 33.539 183.456 L 33.539 183.456 L 33.339 182.516 L 33.339 182.516 Q 32.939 182.876 32.559 183.161 L 32.559 183.161 L 32.559 183.161 Q 32.179 183.446 31.759 183.641 L 31.759 183.641 L 31.759 183.641 Q 31.339 183.836 30.864 183.936 L 30.864 183.936 L 30.864 183.936 Q 30.389 184.036 29.809 184.036 L 29.809 184.036 L 29.809 184.036 Q 29.219 184.036 28.704 183.87 L 28.704 183.87 L 28.704 183.87 Q 28.189 183.705 27.809 183.374 L 27.809 183.374 L 27.809 183.374 Q 27.429 183.043 27.204 182.536 L 27.204 182.536 L 27.204 182.536 Q 26.979 182.029 26.979 181.337 L 26.979 181.337 L 26.979 181.337 Q 26.979 180.735 27.309 180.178 L 27.309 180.178 L 27.309 180.178 Q 27.639 179.621 28.374 179.189 L 28.374 179.189 L 28.374 179.189 Q 29.109 178.758 30.299 178.482 L 30.299 178.482 L 30.299 178.482 Q 31.489 178.206 33.209 178.206 L 33.209 178.206 L 33.209 177.411 L 33.209 177.411 Q 33.209 176.224 32.704 175.615 L 32.704 175.615 L 32.704 175.615 Q 32.199 175.006 31.209 175.006 L 31.209 175.006 L 31.209 175.006 Q 30.559 175.006 30.114 175.171 L 30.114 175.171 L 30.114 175.171 Q 29.669 175.336 29.344 175.541 L 29.344 175.541 L 29.344 175.541 Q 29.019 175.746 28.784 175.911 L 28.784 175.911 L 28.784 175.911 Q 28.549 176.076 28.319 176.076 L 28.319 176.076 L 28.319 176.076 Q 28.139 176.076 28.004 175.981 L 28.004 175.981 L 28.004 175.981 Q 27.869 175.886 27.789 175.746 L 27.789 175.746 L 27.469 175.176 L 27.469 175.176 Q 28.309 174.366 29.279 173.966 L 29.279 173.966 L 29.279 173.966 Q 30.249 173.566 31.429 173.566 L 31.429 173.566 L 31.429 173.566 Q 32.279 173.566 32.939 173.846 L 32.939 173.846 L 32.939 173.846 Q 33.599 174.126 34.049 174.626 L 34.049 174.626 L 34.049 174.626 Q 34.499 175.126 34.729 175.836 L 34.729 175.836 L 34.729 175.836 Q 34.959 176.546 34.959 177.396 L 34.959 177.396 L 34.959 177.396 Z  M 30.339 182.786 L 30.339 182.786 L 30.339 182.786 Q 30.809 182.786 31.199 182.691 L 31.199 182.691 L 31.199 182.691 Q 31.589 182.596 31.934 182.421 L 31.934 182.421 L 31.934 182.421 Q 32.279 182.246 32.594 181.996 L 32.594 181.996 L 32.594 181.996 Q 32.909 181.746 33.209 181.426 L 33.209 181.426 L 33.209 179.336 L 33.209 179.336 Q 31.979 179.336 31.119 179.492 L 31.119 179.492 L 31.119 179.492 Q 30.259 179.648 29.719 179.899 L 29.719 179.899 L 29.719 179.899 Q 29.179 180.151 28.934 180.493 L 28.934 180.493 L 28.934 180.493 Q 28.689 180.835 28.689 181.257 L 28.689 181.257 L 28.689 181.257 Q 28.689 181.659 28.819 181.951 L 28.819 181.951 L 28.819 181.951 Q 28.949 182.243 29.169 182.429 L 29.169 182.429 L 29.169 182.429 Q 29.389 182.615 29.689 182.701 L 29.689 182.701 L 29.689 182.701 Q 29.989 182.786 30.339 182.786 Z  M 40.729 184.036 L 40.729 184.036 L 40.729 184.036 Q 39.529 184.036 38.884 183.366 L 38.884 183.366 L 38.884 183.366 Q 38.239 182.696 38.239 181.436 L 38.239 181.436 L 38.239 175.236 L 37.019 175.236 L 37.019 175.236 Q 36.859 175.236 36.749 175.141 L 36.749 175.141 L 36.749 175.141 Q 36.639 175.046 36.639 174.846 L 36.639 174.846 L 36.639 174.136 L 38.299 173.926 L 38.709 170.796 L 38.709 170.796 Q 38.729 170.646 38.839 170.551 L 38.839 170.551 L 38.839 170.551 Q 38.949 170.456 39.119 170.456 L 39.119 170.456 L 40.019 170.456 L 40.019 173.946 L 42.919 173.946 L 42.919 175.236 L 40.019 175.236 L 40.019 181.316 L 40.019 181.316 Q 40.019 181.956 40.329 182.266 L 40.329 182.266 L 40.329 182.266 Q 40.639 182.576 41.129 182.576 L 41.129 182.576 L 41.129 182.576 Q 41.409 182.576 41.614 182.501 L 41.614 182.501 L 41.614 182.501 Q 41.819 182.426 41.969 182.336 L 41.969 182.336 L 41.969 182.336 Q 42.119 182.246 42.224 182.171 L 42.224 182.171 L 42.224 182.171 Q 42.329 182.096 42.409 182.096 L 42.409 182.096 L 42.409 182.096 Q 42.549 182.096 42.659 182.266 L 42.659 182.266 L 43.179 183.116 L 43.179 183.116 Q 42.719 183.546 42.069 183.791 L 42.069 183.791 L 42.069 183.791 Q 41.419 184.036 40.729 184.036 Z  M 52.559 177.396 L 52.559 183.876 L 51.769 183.876 L 51.769 183.876 Q 51.509 183.876 51.349 183.796 L 51.349 183.796 L 51.349 183.796 Q 51.189 183.716 51.139 183.456 L 51.139 183.456 L 50.939 182.516 L 50.939 182.516 Q 50.539 182.876 50.159 183.161 L 50.159 183.161 L 50.159 183.161 Q 49.779 183.446 49.359 183.641 L 49.359 183.641 L 49.359 183.641 Q 48.939 183.836 48.464 183.936 L 48.464 183.936 L 48.464 183.936 Q 47.989 184.036 47.409 184.036 L 47.409 184.036 L 47.409 184.036 Q 46.819 184.036 46.304 183.87 L 46.304 183.87 L 46.304 183.87 Q 45.789 183.705 45.409 183.374 L 45.409 183.374 L 45.409 183.374 Q 45.029 183.043 44.804 182.536 L 44.804 182.536 L 44.804 182.536 Q 44.579 182.029 44.579 181.337 L 44.579 181.337 L 44.579 181.337 Q 44.579 180.735 44.909 180.178 L 44.909 180.178 L 44.909 180.178 Q 45.239 179.621 45.974 179.189 L 45.974 179.189 L 45.974 179.189 Q 46.709 178.758 47.899 178.482 L 47.899 178.482 L 47.899 178.482 Q 49.089 178.206 50.809 178.206 L 50.809 178.206 L 50.809 177.411 L 50.809 177.411 Q 50.809 176.224 50.304 175.615 L 50.304 175.615 L 50.304 175.615 Q 49.799 175.006 48.809 175.006 L 48.809 175.006 L 48.809 175.006 Q 48.159 175.006 47.714 175.171 L 47.714 175.171 L 47.714 175.171 Q 47.269 175.336 46.944 175.541 L 46.944 175.541 L 46.944 175.541 Q 46.619 175.746 46.384 175.911 L 46.384 175.911 L 46.384 175.911 Q 46.149 176.076 45.919 176.076 L 45.919 176.076 L 45.919 176.076 Q 45.739 176.076 45.604 175.981 L 45.604 175.981 L 45.604 175.981 Q 45.469 175.886 45.389 175.746 L 45.389 175.746 L 45.069 175.176 L 45.069 175.176 Q 45.909 174.366 46.879 173.966 L 46.879 173.966 L 46.879 173.966 Q 47.849 173.566 49.029 173.566 L 49.029 173.566 L 49.029 173.566 Q 49.879 173.566 50.539 173.846 L 50.539 173.846 L 50.539 173.846 Q 51.199 174.126 51.649 174.626 L 51.649 174.626 L 51.649 174.626 Q 52.099 175.126 52.329 175.836 L 52.329 175.836 L 52.329 175.836 Q 52.559 176.546 52.559 177.396 L 52.559 177.396 L 52.559 177.396 Z  M 47.939 182.786 L 47.939 182.786 L 47.939 182.786 Q 48.409 182.786 48.799 182.691 L 48.799 182.691 L 48.799 182.691 Q 49.189 182.596 49.534 182.421 L 49.534 182.421 L 49.534 182.421 Q 49.879 182.246 50.194 181.996 L 50.194 181.996 L 50.194 181.996 Q 50.509 181.746 50.809 181.426 L 50.809 181.426 L 50.809 179.336 L 50.809 179.336 Q 49.579 179.336 48.719 179.492 L 48.719 179.492 L 48.719 179.492 Q 47.859 179.648 47.319 179.899 L 47.319 179.899 L 47.319 179.899 Q 46.779 180.151 46.534 180.493 L 46.534 180.493 L 46.534 180.493 Q 46.289 180.835 46.289 181.257 L 46.289 181.257 L 46.289 181.257 Q 46.289 181.659 46.419 181.951 L 46.419 181.951 L 46.419 181.951 Q 46.549 182.243 46.769 182.429 L 46.769 182.429 L 46.769 182.429 Q 46.989 182.615 47.289 182.701 L 47.289 182.701 L 47.289 182.701 Q 47.589 182.786 47.939 182.786 Z " fill="rgb(255,255,255)"/><path d=" M 228.579 178.516 L 226.279 178.516 L 226.279 183.876 L 224.349 183.876 L 224.349 169.546 L 228.579 169.546 L 228.579 169.546 Q 229.939 169.546 230.944 169.861 L 230.944 169.861 L 230.944 169.861 Q 231.949 170.176 232.609 170.756 L 232.609 170.756 L 232.609 170.756 Q 233.269 171.336 233.594 172.156 L 233.594 172.156 L 233.594 172.156 Q 233.919 172.976 233.919 173.986 L 233.919 173.986 L 233.919 173.986 Q 233.919 174.986 233.569 175.816 L 233.569 175.816 L 233.569 175.816 Q 233.219 176.646 232.544 177.246 L 232.544 177.246 L 232.544 177.246 Q 231.869 177.846 230.869 178.181 L 230.869 178.181 L 230.869 178.181 Q 229.869 178.516 228.579 178.516 L 228.579 178.516 L 228.579 178.516 Z  M 226.279 171.076 L 226.279 176.976 L 228.579 176.976 L 228.579 176.976 Q 229.409 176.976 230.044 176.756 L 230.044 176.756 L 230.044 176.756 Q 230.679 176.536 231.109 176.141 L 231.109 176.141 L 231.109 176.141 Q 231.539 175.746 231.759 175.196 L 231.759 175.196 L 231.759 175.196 Q 231.979 174.646 231.979 173.986 L 231.979 173.986 L 231.979 173.986 Q 231.979 172.616 231.134 171.846 L 231.134 171.846 L 231.134 171.846 Q 230.289 171.076 228.579 171.076 L 228.579 171.076 L 226.279 171.076 L 226.279 171.076 Z  M 237.869 183.876 L 236.089 183.876 L 236.089 173.746 L 237.109 173.746 L 237.109 173.746 Q 237.399 173.746 237.509 173.856 L 237.509 173.856 L 237.509 173.856 Q 237.619 173.966 237.659 174.236 L 237.659 174.236 L 237.779 175.816 L 237.779 175.816 Q 238.299 174.756 239.064 174.161 L 239.064 174.161 L 239.064 174.161 Q 239.829 173.566 240.859 173.566 L 240.859 173.566 L 240.859 173.566 Q 241.279 173.566 241.619 173.661 L 241.619 173.661 L 241.619 173.661 Q 241.959 173.756 242.249 173.926 L 242.249 173.926 L 242.019 175.256 L 242.019 175.256 Q 241.949 175.506 241.709 175.506 L 241.709 175.506 L 241.709 175.506 Q 241.569 175.506 241.279 175.411 L 241.279 175.411 L 241.279 175.411 Q 240.989 175.316 240.469 175.316 L 240.469 175.316 L 240.469 175.316 Q 239.539 175.316 238.914 175.856 L 238.914 175.856 L 238.914 175.856 Q 238.289 176.396 237.869 177.426 L 237.869 177.426 L 237.869 183.876 L 237.869 183.876 Z  M 248.249 173.586 L 248.249 173.586 L 248.249 173.586 Q 249.359 173.586 250.254 173.956 L 250.254 173.956 L 250.254 173.956 Q 251.149 174.326 251.774 175.006 L 251.774 175.006 L 251.774 175.006 Q 252.399 175.686 252.734 176.651 L 252.734 176.651 L 252.734 176.651 Q 253.069 177.616 253.069 178.806 L 253.069 178.806 L 253.069 178.806 Q 253.069 180.006 252.734 180.966 L 252.734 180.966 L 252.734 180.966 Q 252.399 181.926 251.774 182.606 L 251.774 182.606 L 251.774 182.606 Q 251.149 183.286 250.254 183.651 L 250.254 183.651 L 250.254 183.651 Q 249.359 184.016 248.249 184.016 L 248.249 184.016 L 248.249 184.016 Q 247.139 184.016 246.244 183.651 L 246.244 183.651 L 246.244 183.651 Q 245.349 183.286 244.719 182.606 L 244.719 182.606 L 244.719 182.606 Q 244.089 181.926 243.749 180.966 L 243.749 180.966 L 243.749 180.966 Q 243.409 180.006 243.409 178.806 L 243.409 178.806 L 243.409 178.806 Q 243.409 177.616 243.749 176.651 L 243.749 176.651 L 243.749 176.651 Q 244.089 175.686 244.719 175.006 L 244.719 175.006 L 244.719 175.006 Q 245.349 174.326 246.244 173.956 L 246.244 173.956 L 246.244 173.956 Q 247.139 173.586 248.249 173.586 Z  M 248.249 182.626 L 248.249 182.626 L 248.249 182.626 Q 249.749 182.626 250.489 181.621 L 250.489 181.621 L 250.489 181.621 Q 251.229 180.616 251.229 178.816 L 251.229 178.816 L 251.229 178.816 Q 251.229 177.006 250.489 175.996 L 250.489 175.996 L 250.489 175.996 Q 249.749 174.986 248.249 174.986 L 248.249 174.986 L 248.249 174.986 Q 247.489 174.986 246.929 175.246 L 246.929 175.246 L 246.929 175.246 Q 246.369 175.506 245.994 175.996 L 245.994 175.996 L 245.994 175.996 Q 245.619 176.486 245.434 177.201 L 245.434 177.201 L 245.434 177.201 Q 245.249 177.916 245.249 178.816 L 245.249 178.816 L 245.249 178.816 Q 245.249 179.716 245.434 180.426 L 245.434 180.426 L 245.434 180.426 Q 245.619 181.136 245.994 181.621 L 245.994 181.621 L 245.994 181.621 Q 246.369 182.106 246.929 182.366 L 246.929 182.366 L 246.929 182.366 Q 247.489 182.626 248.249 182.626 Z  M 257.859 183.876 L 253.729 173.746 L 255.189 173.746 L 255.189 173.746 Q 255.399 173.746 255.539 173.856 L 255.539 173.856 L 255.539 173.856 Q 255.679 173.966 255.739 174.116 L 255.739 174.116 L 258.309 180.636 L 258.309 180.636 Q 258.449 180.996 258.529 181.356 L 258.529 181.356 L 258.529 181.356 Q 258.609 181.716 258.679 182.066 L 258.679 182.066 L 258.679 182.066 Q 258.759 181.716 258.849 181.356 L 258.849 181.356 L 258.849 181.356 Q 258.939 180.996 259.079 180.636 L 259.079 180.636 L 261.679 174.116 L 261.679 174.116 Q 261.739 173.956 261.874 173.851 L 261.874 173.851 L 261.874 173.851 Q 262.009 173.746 262.209 173.746 L 262.209 173.746 L 263.599 173.746 L 259.469 183.876 L 257.859 183.876 L 257.859 183.876 Z  M 273.179 183.876 L 272.119 183.876 L 272.119 183.876 Q 271.739 183.876 271.639 183.506 L 271.639 183.506 L 271.479 182.276 L 271.479 182.276 Q 270.829 183.066 269.994 183.541 L 269.994 183.541 L 269.994 183.541 Q 269.159 184.016 268.079 184.016 L 268.079 184.016 L 268.079 184.016 Q 267.209 184.016 266.499 183.681 L 266.499 183.681 L 266.499 183.681 Q 265.789 183.346 265.289 182.696 L 265.289 182.696 L 265.289 182.696 Q 264.789 182.046 264.519 181.076 L 264.519 181.076 L 264.519 181.076 Q 264.249 180.106 264.249 178.846 L 264.249 178.846 L 264.249 178.846 Q 264.249 177.726 264.549 176.761 L 264.549 176.761 L 264.549 176.761 Q 264.849 175.796 265.414 175.086 L 265.414 175.086 L 265.414 175.086 Q 265.979 174.376 266.789 173.971 L 266.789 173.971 L 266.789 173.971 Q 267.599 173.566 268.629 173.566 L 268.629 173.566 L 268.629 173.566 Q 269.559 173.566 270.219 173.881 L 270.219 173.881 L 270.219 173.881 Q 270.879 174.196 271.399 174.766 L 271.399 174.766 L 271.399 169.146 L 273.179 169.146 L 273.179 183.876 L 273.179 183.876 Z  M 268.669 182.576 L 268.669 182.576 L 268.669 182.576 Q 269.539 182.576 270.194 182.176 L 270.194 182.176 L 270.194 182.176 Q 270.849 181.776 271.399 181.046 L 271.399 181.046 L 271.399 176.146 L 271.399 176.146 Q 270.909 175.486 270.324 175.221 L 270.324 175.221 L 270.324 175.221 Q 269.739 174.956 269.029 174.956 L 269.029 174.956 L 269.029 174.956 Q 267.609 174.956 266.849 175.966 L 266.849 175.966 L 266.849 175.966 Q 266.089 176.976 266.089 178.846 L 266.089 178.846 L 266.089 178.846 Q 266.089 179.836 266.259 180.541 L 266.259 180.541 L 266.259 180.541 Q 266.429 181.246 266.759 181.701 L 266.759 181.701 L 266.759 181.701 Q 267.089 182.156 267.569 182.366 L 267.569 182.366 L 267.569 182.366 Q 268.049 182.576 268.669 182.576 Z  M 280.179 173.586 L 280.179 173.586 L 280.179 173.586 Q 281.089 173.586 281.859 173.891 L 281.859 173.891 L 281.859 173.891 Q 282.629 174.196 283.189 174.771 L 283.189 174.771 L 283.189 174.771 Q 283.749 175.346 284.064 176.191 L 284.064 176.191 L 284.064 176.191 Q 284.379 177.036 284.379 178.116 L 284.379 178.116 L 284.379 178.116 Q 284.379 178.536 284.289 178.676 L 284.289 178.676 L 284.289 178.676 Q 284.199 178.816 283.949 178.816 L 283.949 178.816 L 277.209 178.816 L 277.209 178.816 Q 277.229 179.776 277.469 180.486 L 277.469 180.486 L 277.469 180.486 Q 277.709 181.196 278.129 181.671 L 278.129 181.671 L 278.129 181.671 Q 278.549 182.146 279.129 182.381 L 279.129 182.381 L 279.129 182.381 Q 279.709 182.616 280.429 182.616 L 280.429 182.616 L 280.429 182.616 Q 281.099 182.616 281.584 182.461 L 281.584 182.461 L 281.584 182.461 Q 282.069 182.306 282.419 182.126 L 282.419 182.126 L 282.419 182.126 Q 282.769 181.946 283.004 181.791 L 283.004 181.791 L 283.004 181.791 Q 283.239 181.636 283.409 181.636 L 283.409 181.636 L 283.409 181.636 Q 283.629 181.636 283.749 181.806 L 283.749 181.806 L 284.249 182.456 L 284.249 182.456 Q 283.919 182.856 283.459 183.151 L 283.459 183.151 L 283.459 183.151 Q 282.999 183.446 282.474 183.636 L 282.474 183.636 L 282.474 183.636 Q 281.949 183.826 281.389 183.921 L 281.389 183.921 L 281.389 183.921 Q 280.829 184.016 280.279 184.016 L 280.279 184.016 L 280.279 184.016 Q 279.229 184.016 278.344 183.661 L 278.344 183.661 L 278.344 183.661 Q 277.459 183.306 276.814 182.621 L 276.814 182.621 L 276.814 182.621 Q 276.169 181.936 275.809 180.926 L 275.809 180.926 L 275.809 180.926 Q 275.449 179.916 275.449 178.606 L 275.449 178.606 L 275.449 178.606 Q 275.449 177.546 275.774 176.626 L 275.774 176.626 L 275.774 176.626 Q 276.099 175.706 276.709 175.031 L 276.709 175.031 L 276.709 175.031 Q 277.319 174.356 278.199 173.971 L 278.199 173.971 L 278.199 173.971 Q 279.079 173.586 280.179 173.586 Z  M 280.219 174.896 L 280.219 174.896 L 280.219 174.896 Q 278.929 174.896 278.189 175.641 L 278.189 175.641 L 278.189 175.641 Q 277.449 176.386 277.269 177.706 L 277.269 177.706 L 282.779 177.706 L 282.779 177.706 Q 282.779 177.086 282.609 176.571 L 282.609 176.571 L 282.609 176.571 Q 282.439 176.056 282.109 175.681 L 282.109 175.681 L 282.109 175.681 Q 281.779 175.306 281.304 175.101 L 281.304 175.101 L 281.304 175.101 Q 280.829 174.896 280.219 174.896 Z  M 288.429 183.876 L 286.649 183.876 L 286.649 173.746 L 287.669 173.746 L 287.669 173.746 Q 287.959 173.746 288.069 173.856 L 288.069 173.856 L 288.069 173.856 Q 288.179 173.966 288.219 174.236 L 288.219 174.236 L 288.339 175.816 L 288.339 175.816 Q 288.859 174.756 289.624 174.161 L 289.624 174.161 L 289.624 174.161 Q 290.389 173.566 291.419 173.566 L 291.419 173.566 L 291.419 173.566 Q 291.839 173.566 292.179 173.661 L 292.179 173.661 L 292.179 173.661 Q 292.519 173.756 292.809 173.926 L 292.809 173.926 L 292.579 175.256 L 292.579 175.256 Q 292.509 175.506 292.269 175.506 L 292.269 175.506 L 292.269 175.506 Q 292.129 175.506 291.839 175.411 L 291.839 175.411 L 291.839 175.411 Q 291.549 175.316 291.029 175.316 L 291.029 175.316 L 291.029 175.316 Q 290.099 175.316 289.474 175.856 L 289.474 175.856 L 289.474 175.856 Q 288.849 176.396 288.429 177.426 L 288.429 177.426 L 288.429 183.876 L 288.429 183.876 Z  M 183.049 169.546 L 188.779 183.876 L 187.279 183.876 L 187.279 183.876 Q 187.019 183.876 186.859 183.746 L 186.859 183.746 L 186.859 183.746 Q 186.699 183.616 186.619 183.416 L 186.619 183.416 L 185.279 179.956 L 178.849 179.956 L 177.509 183.416 L 177.509 183.416 Q 177.439 183.596 177.269 183.736 L 177.269 183.736 L 177.269 183.736 Q 177.099 183.876 176.849 183.876 L 176.849 183.876 L 175.349 183.876 L 181.079 169.546 L 183.049 169.546 L 183.049 169.546 Z  M 181.639 172.736 L 179.389 178.556 L 184.739 178.556 L 182.489 172.726 L 182.489 172.726 Q 182.269 172.186 182.059 171.376 L 182.059 171.376 L 182.059 171.376 Q 181.949 171.786 181.844 172.131 L 181.844 172.131 L 181.844 172.131 Q 181.739 172.476 181.639 172.736 L 181.639 172.736 L 181.639 172.736 Z  M 190.069 173.746 L 191.849 173.746 L 191.849 180.206 L 191.849 180.206 Q 191.849 181.356 192.379 181.986 L 192.379 181.986 L 192.379 181.986 Q 192.909 182.616 193.979 182.616 L 193.979 182.616 L 193.979 182.616 Q 194.759 182.616 195.449 182.246 L 195.449 182.246 L 195.449 182.246 Q 196.139 181.876 196.719 181.216 L 196.719 181.216 L 196.719 173.746 L 198.499 173.746 L 198.499 183.876 L 197.439 183.876 L 197.439 183.876 Q 197.059 183.876 196.959 183.506 L 196.959 183.506 L 196.819 182.416 L 196.819 182.416 Q 196.159 183.146 195.339 183.591 L 195.339 183.591 L 195.339 183.591 Q 194.519 184.036 193.459 184.036 L 193.459 184.036 L 193.459 184.036 Q 192.629 184.036 191.994 183.761 L 191.994 183.761 L 191.994 183.761 Q 191.359 183.486 190.929 182.986 L 190.929 182.986 L 190.929 182.986 Q 190.499 182.486 190.284 181.776 L 190.284 181.776 L 190.284 181.776 Q 190.069 181.066 190.069 180.206 L 190.069 180.206 L 190.069 173.746 L 190.069 173.746 Z  M 204.499 184.036 L 204.499 184.036 L 204.499 184.036 Q 203.299 184.036 202.654 183.366 L 202.654 183.366 L 202.654 183.366 Q 202.009 182.696 202.009 181.436 L 202.009 181.436 L 202.009 175.236 L 200.789 175.236 L 200.789 175.236 Q 200.629 175.236 200.519 175.141 L 200.519 175.141 L 200.519 175.141 Q 200.409 175.046 200.409 174.846 L 200.409 174.846 L 200.409 174.136 L 202.069 173.926 L 202.479 170.796 L 202.479 170.796 Q 202.499 170.646 202.609 170.551 L 202.609 170.551 L 202.609 170.551 Q 202.719 170.456 202.889 170.456 L 202.889 170.456 L 203.789 170.456 L 203.789 173.946 L 206.689 173.946 L 206.689 175.236 L 203.789 175.236 L 203.789 181.316 L 203.789 181.316 Q 203.789 181.956 204.099 182.266 L 204.099 182.266 L 204.099 182.266 Q 204.409 182.576 204.899 182.576 L 204.899 182.576 L 204.899 182.576 Q 205.179 182.576 205.384 182.501 L 205.384 182.501 L 205.384 182.501 Q 205.589 182.426 205.739 182.336 L 205.739 182.336 L 205.739 182.336 Q 205.889 182.246 205.994 182.171 L 205.994 182.171 L 205.994 182.171 Q 206.099 182.096 206.179 182.096 L 206.179 182.096 L 206.179 182.096 Q 206.319 182.096 206.429 182.266 L 206.429 182.266 L 206.949 183.116 L 206.949 183.116 Q 206.489 183.546 205.839 183.791 L 205.839 183.791 L 205.839 183.791 Q 205.189 184.036 204.499 184.036 Z  M 210.669 183.876 L 208.889 183.876 L 208.889 169.146 L 210.669 169.146 L 210.669 175.106 L 210.669 175.106 Q 211.319 174.416 212.109 174.001 L 212.109 174.001 L 212.109 174.001 Q 212.899 173.586 213.929 173.586 L 213.929 173.586 L 213.929 173.586 Q 214.759 173.586 215.394 173.861 L 215.394 173.861 L 215.394 173.861 Q 216.029 174.136 216.454 174.641 L 216.454 174.641 L 216.454 174.641 Q 216.879 175.146 217.099 175.856 L 217.099 175.856 L 217.099 175.856 Q 217.319 176.566 217.319 177.426 L 217.319 177.426 L 217.319 183.876 L 215.539 183.876 L 215.539 177.426 L 215.539 177.426 Q 215.539 176.276 215.014 175.641 L 215.014 175.641 L 215.014 175.641 Q 214.489 175.006 213.409 175.006 L 213.409 175.006 L 213.409 175.006 Q 212.619 175.006 211.934 175.386 L 211.934 175.386 L 211.934 175.386 Q 211.249 175.766 210.669 176.416 L 210.669 176.416 L 210.669 183.876 L 210.669 183.876 Z " fill="rgb(255,255,255)"/><path d=" M 148.939 36.7 L 148.939 36.7 L 148.939 36.7 Q 149.829 36.7 150.529 36.4 L 150.529 36.4 L 150.529 36.4 Q 151.229 36.1 151.714 35.56 L 151.714 35.56 L 151.714 35.56 Q 152.199 35.02 152.454 34.27 L 152.454 34.27 L 152.454 34.27 Q 152.709 33.52 152.709 32.62 L 152.709 32.62 L 152.709 23.91 L 154.639 23.91 L 154.639 32.62 L 154.639 32.62 Q 154.639 33.86 154.244 34.92 L 154.244 34.92 L 154.244 34.92 Q 153.849 35.98 153.114 36.755 L 153.114 36.755 L 153.114 36.755 Q 152.379 37.53 151.319 37.97 L 151.319 37.97 L 151.319 37.97 Q 150.259 38.41 148.939 38.41 L 148.939 38.41 L 148.939 38.41 Q 147.619 38.41 146.559 37.97 L 146.559 37.97 L 146.559 37.97 Q 145.499 37.53 144.759 36.755 L 144.759 36.755 L 144.759 36.755 Q 144.019 35.98 143.624 34.92 L 143.624 34.92 L 143.624 34.92 Q 143.229 33.86 143.229 32.62 L 143.229 32.62 L 143.229 23.91 L 145.159 23.91 L 145.159 32.61 L 145.159 32.61 Q 145.159 33.51 145.414 34.26 L 145.414 34.26 L 145.414 34.26 Q 145.669 35.01 146.154 35.55 L 146.154 35.55 L 146.154 35.55 Q 146.639 36.09 147.344 36.395 L 147.344 36.395 L 147.344 36.395 Q 148.049 36.7 148.939 36.7 Z  M 160.269 23.91 L 160.269 38.24 L 158.329 38.24 L 158.329 23.91 L 160.269 23.91 L 160.269 23.91 Z " fill="rgb(5,10,20)"/><path d=" M 143.819 270.234 L 149.549 284.564 L 148.049 284.564 L 148.049 284.564 Q 147.789 284.564 147.629 284.434 L 147.629 284.434 L 147.629 284.434 Q 147.469 284.304 147.389 284.104 L 147.389 284.104 L 146.049 280.644 L 139.619 280.644 L 138.279 284.104 L 138.279 284.104 Q 138.209 284.284 138.039 284.424 L 138.039 284.424 L 138.039 284.424 Q 137.869 284.564 137.619 284.564 L 137.619 284.564 L 136.119 284.564 L 141.849 270.234 L 143.819 270.234 L 143.819 270.234 Z  M 142.409 273.424 L 140.159 279.244 L 145.509 279.244 L 143.259 273.414 L 143.259 273.414 Q 143.039 272.874 142.829 272.064 L 142.829 272.064 L 142.829 272.064 Q 142.719 272.474 142.614 272.819 L 142.614 272.819 L 142.614 272.819 Q 142.509 273.164 142.409 273.424 L 142.409 273.424 L 142.409 273.424 Z  M 155.789 279.204 L 153.489 279.204 L 153.489 284.564 L 151.559 284.564 L 151.559 270.234 L 155.789 270.234 L 155.789 270.234 Q 157.149 270.234 158.154 270.549 L 158.154 270.549 L 158.154 270.549 Q 159.159 270.864 159.819 271.444 L 159.819 271.444 L 159.819 271.444 Q 160.479 272.024 160.804 272.844 L 160.804 272.844 L 160.804 272.844 Q 161.129 273.664 161.129 274.674 L 161.129 274.674 L 161.129 274.674 Q 161.129 275.674 160.779 276.504 L 160.779 276.504 L 160.779 276.504 Q 160.429 277.334 159.754 277.934 L 159.754 277.934 L 159.754 277.934 Q 159.079 278.534 158.079 278.869 L 158.079 278.869 L 158.079 278.869 Q 157.079 279.204 155.789 279.204 L 155.789 279.204 L 155.789 279.204 Z  M 153.489 271.764 L 153.489 277.664 L 155.789 277.664 L 155.789 277.664 Q 156.619 277.664 157.254 277.444 L 157.254 277.444 L 157.254 277.444 Q 157.889 277.224 158.319 276.829 L 158.319 276.829 L 158.319 276.829 Q 158.749 276.434 158.969 275.884 L 158.969 275.884 L 158.969 275.884 Q 159.189 275.334 159.189 274.674 L 159.189 274.674 L 159.189 274.674 Q 159.189 273.304 158.344 272.534 L 158.344 272.534 L 158.344 272.534 Q 157.499 271.764 155.789 271.764 L 155.789 271.764 L 153.489 271.764 L 153.489 271.764 Z  M 165.879 270.234 L 165.879 284.564 L 163.939 284.564 L 163.939 270.234 L 165.879 270.234 L 165.879 270.234 Z " fill="rgb(5,10,20)"/><polygon points="70.749,149.818,63.376,137.046,78.123,137.046" fill="rgb(52,73,94)"/><polygon points="68.966,83.728,61.592,70.956,76.339,70.956" fill="rgb(52,73,94)"/><polygon points="237.126,149.818,229.752,137.046,244.499,137.046" fill="rgb(52,73,94)"/><polygon points="236.373,240.84,228.999,228.068,243.747,228.068" fill="rgb(52,73,94)"/><polygon points="69.626,240.84,62.252,228.068,76.999,228.068" fill="rgb(52,73,94)"/><line x1="0.499" y1="220.094" x2="305.499" y2="220.094" vector-effect="non-scaling-stroke" stroke-width="1" stroke-dasharray="2,5" stroke="rgb(0,0,0)" stroke-linejoin="miter" stroke-linecap="square" stroke-miterlimit="3"/><rect x="235.249" y="69.478" width="3.687" height="71.044" transform="matrix(1,0,0,1,0,0)" fill="rgb(52,73,94)"/><rect x="234.497" y="199" width="3.687" height="32.544" transform="matrix(1,0,0,1,0,0)" fill="rgb(52,73,94)"/><rect x="67.749" y="199" width="3.687" height="32.544" transform="matrix(1,0,0,1,0,0)" fill="rgb(52,73,94)"/></svg>